<svg width="52" height="52" viewBox="0 0 52 52" fill="none" xmlns="http://www.w3.org/2000/svg">
<g clip-path="url(#clip0_41_1238)">
<mask id="mask0_41_1238" style="mask-type:luminance" maskUnits="userSpaceOnUse" x="0" y="0" width="52" height="52">
<path d="M39.0884 51.9759C40.2374 51.9519 41.3944 51.8795 42.5271 51.6789C43.6761 51.47 44.7527 51.1489 45.7973 50.6109C46.8338 50.097 47.7737 49.4145 48.5853 48.6115C49.3968 47.8086 50.0877 46.8771 50.6021 45.8573C51.1322 44.8214 51.4698 43.7697 51.6787 42.6294C51.8876 41.5053 51.9519 40.365 51.9759 39.2249C51.992 38.7029 51.992 38.181 52 37.659V14.3329C52 13.811 52 13.2891 51.9759 12.7671C51.9519 11.635 51.8795 10.4867 51.6787 9.36258C51.4698 8.22237 51.1323 7.16244 50.6021 6.13466C50.0797 5.12291 49.3968 4.19148 48.5853 3.38048C47.7737 2.57751 46.8258 1.895 45.7973 1.3811C44.7447 0.859172 43.6761 0.521926 42.5271 0.313157C41.3944 0.112415 40.2374 0.0401483 39.0884 0.0160593C38.8715 0.0160593 38.6544 0.00802965 38.301 0H15.1452L12.9277 0.0240892C11.7787 0.0481782 10.6218 0.120445 9.48887 0.321187C8.33993 0.529956 7.26329 0.859172 6.21879 1.38913C5.18232 1.90303 4.24227 2.58555 3.43079 3.38852C2.61928 4.19148 1.92831 5.12291 1.41409 6.14267C0.875773 7.17851 0.546353 8.23039 0.337454 9.37059C0.120519 10.4947 0.0562421 11.635 0.0241035 12.7752C0.00803461 13.2971 0.00803461 13.819 0 14.341V37.6671C0 38.189 0.00803461 38.711 0.0241037 39.2329C0.0482077 40.365 0.120519 41.5133 0.321384 42.6374C0.530285 43.7777 0.867737 44.8376 1.39802 45.8653C1.92027 46.8771 2.60321 47.8086 3.41471 48.6196C4.22621 49.4225 5.17428 50.105 6.20271 50.619C7.25526 51.1409 8.32386 51.4781 9.4728 51.6869C10.6057 51.8876 11.7627 51.9599 12.9116 51.984C13.1285 51.984 13.3455 51.992 13.699 52H35.6254L39.0724 51.984C39.0724 51.984 39.0884 51.9759 39.0884 51.9759Z" fill="white"/>
</mask>
<g mask="url(#mask0_41_1238)">
<path d="M0 0H52V52H0V0Z" fill="#A0866A"/>
<path fill-rule="evenodd" clip-rule="evenodd" d="M0 0H52V17.0625L0 8.9375V0Z" fill="#A0866A"/>
<path fill-rule="evenodd" clip-rule="evenodd" d="M0 46.3125L52 38.1875V52H0V46.3125Z" fill="#A0866A"/>
<path fill-rule="evenodd" clip-rule="evenodd" d="M0 7.90942L18.151 10.7455C20.4105 9.31527 23.0986 8.53111 26 8.53111C30.0185 8.53111 33.628 10.0354 36.2561 12.6771C36.5878 13.0104 36.9007 13.359 37.1939 13.721L52 16.0344V18.0903L38.6973 16.0118C39.6855 17.9083 40.2188 20.0214 40.2188 22.1779C40.2188 24.9638 39.5956 27.7414 38.3075 30.5304L38.2683 30.6149L37.7212 31.787H36.4275C33.7562 31.787 31.9843 32.5861 30.8258 34.0022C29.9163 35.1142 29.3902 36.6131 29.2132 38.2485L29.2078 38.2996L29.182 38.5609L29.1709 38.6746L29.1499 38.8969C29.0821 39.6271 29.0368 40.2463 29.0138 40.7509L52 37.1595V39.2152L0 47.3402V45.2845L23.012 41.6887L23.002 41.2272L22.999 41.097L22.997 41.0302L22.9933 40.9273C22.9727 40.3677 22.9214 39.6503 22.8393 38.7808L22.8235 38.6159L22.7953 38.3304C22.6302 36.6863 22.1119 35.1683 21.2048 34.0399C20.0584 32.6143 18.3028 31.8035 15.653 31.7872L15.5724 31.787H14.2788L13.7317 30.6149C12.4171 27.7975 11.7812 24.9919 11.7812 22.1779C11.7812 18.639 13.2169 15.217 15.7439 12.6771C15.8168 12.6038 15.8905 12.5313 15.965 12.4598L0 9.96527V7.90942Z" fill="white"/>
<path fill-rule="evenodd" clip-rule="evenodd" d="M26 10.5623C33.2596 10.5623 38.1875 16.15 38.1875 22.1778C38.1875 24.5977 37.6595 27.1158 36.4275 29.7557C29.284 29.7557 27.5208 34.8716 27.1873 38.0904L27.1661 38.3049C27.053 39.4537 26.9878 40.3754 26.9698 41.0702L25.035 41.3727L25.0345 41.3101C25.0272 40.5816 24.9583 39.5598 24.828 38.2447L24.8224 38.1873C24.5143 34.9754 22.7881 29.7557 15.5724 29.7557C14.3405 27.1158 13.8125 24.5977 13.8125 22.1778C13.8125 16.15 18.7403 10.5623 26 10.5623Z" fill="#A0866A"/>
</g>
</g>
<defs>
<clipPath id="clip0_41_1238">
<rect width="52" height="52" fill="white"/>
</clipPath>
</defs>
</svg>
