<svg width="1920" height="1024" viewBox="0 0 1920 1024" fill="none" xmlns="http://www.w3.org/2000/svg">
<g clip-path="url(#clip0_41_1106)">
<path d="M-145.176 1454.32C-138.091 1300.65 -40.1346 1188.62 38.5854 1098.61L44.1784 1092.22C53.3136 1082.61 74.3806 1056.9 72.7196 1025.83C71.714 1006.93 62.3471 989.819 44.8959 974.989C34.433 966.097 24.7498 957.786 15.5411 949.877C-25.1748 914.924 -57.3373 887.309 -107.267 852.683C-125.51 840.034 -143.464 828.063 -160.994 816.814V818.583C-143.735 829.673 -126.069 841.469 -108.121 853.909C-58.2525 888.495 -26.1182 916.082 14.5694 951.007C23.7781 958.91 33.4613 967.227 43.9298 976.124C61.059 990.683 70.2451 1007.43 71.2281 1025.91C72.8552 1056.39 52.0933 1081.71 43.0767 1091.21L37.4611 1097.63C-41.4057 1187.82 -139.554 1300.06 -146.661 1454.25C-147.418 1470.68 -153.808 1480.72 -160.994 1484.13V1485.91C-153.22 1482.71 -146.012 1472.54 -145.17 1454.32H-145.176Z" fill="white"/>
<path d="M-110.341 1455.92C-103.822 1314.43 -10.3055 1207.49 64.8383 1121.56L70.4539 1115.14C86.233 1097.08 99.0121 1081.08 108.447 1067.58C120.136 1050.86 141.892 1019.73 90.5153 970.119C35.1107 916.619 -24.7513 867.468 -87.4041 824.023C-112.951 806.307 -137.543 790.341 -161 775.997V777.743C-137.803 791.946 -113.499 807.742 -88.2515 825.249C-25.6665 868.649 34.1334 917.754 89.4814 971.198C139.943 1019.92 118.661 1050.37 107.226 1066.73C97.8257 1080.18 85.0748 1096.14 69.3353 1114.15L63.7141 1120.58C-11.5766 1206.68 -105.285 1313.84 -111.832 1455.86C-114.872 1521.72 -126.561 1560.06 -148.633 1576.48C-153 1579.73 -157.136 1581.5 -161 1581.93V1583.43C-156.797 1583.02 -152.452 1581.19 -147.741 1577.68C-125.284 1560.97 -113.397 1522.28 -110.335 1455.92H-110.341Z" fill="white"/>
<path d="M497.781 443.847C488.098 405.611 409.977 395.385 319.523 383.544C297.168 380.617 274.056 377.595 251.611 374.053C152.434 358.398 61.6464 308.615 -26.1523 260.464C-70.1223 236.352 -115.036 211.737 -161 191.49V195.292C-115.652 215.37 -71.2748 239.702 -27.8302 263.526C60.2284 311.818 151.287 361.754 251.063 377.499C273.559 381.047 296.693 384.075 319.071 387.007C404.554 398.193 485.296 408.763 494.397 444.705C501.487 472.71 465.014 515.194 382.893 574.587C267.666 657.923 170.981 696.735 78.6175 696.735C26.1281 696.735 -25.915 683.701 -76.0769 658.002C-107.296 642.008 -134.769 622.557 -161 602.925V607.281C-135.278 626.466 -108.296 645.415 -77.67 661.109C-27.011 687.063 25.5631 700.22 78.6118 700.22H78.6231C171.755 700.22 269.09 661.199 384.933 577.417C469.506 516.256 505.363 473.817 497.776 443.852L497.781 443.847Z" fill="white"/>
<path d="M619.935 303.558C611.353 303.558 599.258 309.027 590.354 335.071C580.349 364.358 599.625 371.166 620.031 378.369C623.607 379.634 627.307 380.939 630.895 382.38C638.94 385.612 645.702 387.25 650.996 387.25C656.866 387.25 661.091 385.267 663.555 381.363C671.181 369.273 658.956 342.523 653.34 331.58C644.273 314.033 631.782 303.553 619.935 303.553V303.558ZM661.447 380.036C657.465 386.352 647.403 386.329 631.827 380.064C628.189 378.601 624.466 377.29 620.861 376.013C600.817 368.934 583.507 362.827 592.71 335.873C599.382 316.36 608.794 306.044 619.929 306.044C631.064 306.044 642.488 316.016 651.12 332.721C662.396 354.709 666.255 372.397 661.442 380.036H661.447Z" fill="white"/>
<path d="M-26.3505 1120.58C-24.1246 1117.92 -21.8591 1115.26 -19.5824 1112.58C12.4898 1074.85 45.6466 1035.85 7.95886 989.192C-21.1925 953.108 -65.1964 923.358 -104.02 897.111C-112.065 891.67 -119.663 886.535 -127.149 881.343C-132.171 877.857 -138.979 872.891 -146.854 867.146C-151.182 863.988 -155.938 860.519 -161.006 856.847V858.694C-156.272 862.123 -151.809 865.377 -147.735 868.355C-139.849 874.112 -133.041 879.083 -128.002 882.574C-120.511 887.772 -112.906 892.913 -104.861 898.353C-66.1285 924.545 -22.2264 954.233 6.78941 990.141C43.7032 1035.83 10.9474 1074.36 -20.7292 1111.62C-23.0116 1114.3 -25.2771 1116.97 -27.503 1119.63C-55.355 1152.82 -90.9298 1197.26 -119.07 1246.77C-136.154 1276.82 -150.221 1308.4 -161.012 1340.8V1345.7C-150.08 1311.84 -135.583 1278.84 -117.771 1247.5C-89.6926 1198.11 -54.1686 1153.73 -26.3618 1120.58L-26.3505 1120.58Z" fill="white"/>
<path d="M-54.7275 616.32C-16.8589 635.72 15.3149 644.759 46.5227 644.759C77.7305 644.759 108.243 634.946 141.886 623.579C160.97 617.133 182.596 609.823 207.115 603.671C219.55 600.546 230.397 600.185 237.47 600.185C242.227 600.185 246.78 600.371 251.187 600.546C255.362 600.716 259.311 600.874 263.215 600.874C283.411 600.874 299.467 596.095 317.065 572.322C328.941 556.283 333.387 543.888 337.313 532.962C343.183 516.612 347.821 503.703 373.651 485.229C380.278 480.489 389.763 476.76 398.938 473.15C413.706 467.343 426.462 462.32 426.988 453.824C427.417 446.937 419.395 439.253 401.746 429.644C380.6 418.17 350.42 416.616 323.692 416.616C311.772 416.616 299.253 416.983 287.146 417.339C274.982 417.695 262.401 418.062 250.362 418.062C223.527 418.062 204.72 416.204 189.376 412.04C102.673 388.498 21.3768 343.913 -50.3491 304.581C-88.003 283.938 -124.533 263.933 -161 246.741V249.498C-124.945 266.549 -88.7995 286.344 -51.5525 306.773C20.2921 346.172 101.724 390.826 188.715 414.452C204.279 418.678 223.29 420.565 250.351 420.565C262.429 420.565 275.028 420.198 287.208 419.842C299.298 419.486 311.794 419.119 323.681 419.119C350.098 419.119 379.888 420.633 400.548 431.841C416.79 440.683 424.846 448.033 424.496 453.677C424.067 460.592 411.418 465.569 398.023 470.84C388.707 474.506 379.08 478.291 372.199 483.212C345.731 502.138 340.742 516.036 334.963 532.131C331.099 542.899 326.715 555.108 315.06 570.853C298.083 593.784 282.637 598.394 263.215 598.394C259.362 598.394 255.441 598.236 251.288 598.066C246.854 597.885 242.272 597.699 237.47 597.699C230.267 597.699 219.216 598.072 206.511 601.258C181.896 607.439 160.219 614.76 141.089 621.224C107.661 632.517 78.7869 642.274 46.5283 642.274C14.2697 642.274 -16.085 633.325 -53.5919 614.105C-87.8787 596.535 -118.714 573.158 -148.543 550.548C-152.678 547.413 -156.831 544.266 -161 541.131V544.244C-157.339 547.006 -153.684 549.774 -150.046 552.531C-120.143 575.203 -89.2176 598.643 -54.7331 616.314L-54.7275 616.32Z" fill="white"/>
<path d="M-31.7849 571.531C5.02721 590.389 41.1218 599.564 78.5836 599.575C99.5488 599.575 144.829 591.016 184.302 576.7C218.883 564.158 260.119 543.328 260.22 515.313C260.333 482.32 196.624 463.993 158.563 453.044C150.287 450.66 143.135 448.603 138.366 446.875C70.2054 422.186 2.55273 390.996 -74.5402 348.721C-103.968 332.58 -132.685 316.835 -161 302.688V304.361C-132.928 318.411 -104.443 334.021 -75.2633 350.026C1.90303 392.34 69.6178 423.559 137.852 448.276C142.671 450.021 149.846 452.084 158.151 454.473C195.81 465.309 258.842 483.444 258.729 515.301C258.559 563.723 122.056 598.078 78.5666 598.078C41.3704 598.066 5.49611 588.948 -31.1013 570.197C-61.5407 554.594 -90.6187 532.555 -118.742 511.234C-132.357 500.912 -146.362 490.308 -161 479.986V481.822C-146.69 491.941 -132.979 502.319 -119.646 512.426C-91.4717 533.781 -62.3373 555.865 -31.7792 571.525L-31.7849 571.531Z" fill="white"/>
<path d="M-15.8817 540.492C15.8684 556.757 46.7428 564.678 78.5834 564.7C106.221 564.7 142.293 556.503 156.19 538.509C162.235 530.685 163.942 521.51 161.258 511.245C154.953 487.088 104.356 470.004 67.4143 457.529C55.477 453.496 45.161 450.016 38.8279 447.078C-3.85963 427.271 -46.1009 404.097 -86.9523 381.691L-91.5058 379.194C-115.121 366.245 -138.255 353.568 -161.006 341.822V343.506C-138.493 355.144 -115.595 367.686 -92.229 380.504L-87.6755 383.007C-46.8014 405.43 -4.53757 428.61 38.1952 448.439C44.6017 451.411 54.9459 454.908 66.9285 458.953C101.486 470.619 153.705 488.257 159.806 511.635C162.365 521.431 160.744 530.171 154.998 537.605C141.406 555.203 105.853 563.214 78.4874 563.22C46.9745 563.198 16.326 555.333 -15.2095 539.176C-42.9259 524.973 -70.7609 503.872 -97.6977 483.449C-117.171 468.687 -138.086 452.852 -161.006 437.886V439.677C-138.43 454.467 -117.81 470.077 -98.5846 484.653C-71.6083 505.098 -43.7168 526.244 -15.8874 540.503L-15.8817 540.492Z" fill="white"/>
<path d="M723.224 29.8406C725.71 19.7902 728.156 9.88099 730.455 3.42554e-05H727.896C725.636 9.67761 723.241 19.3947 720.806 29.2418C716.23 47.7156 711.501 66.8279 707.671 86.3242C694.903 151.339 683.904 236.572 712.366 319.309C723.93 352.929 752.748 380.397 778.171 404.628C800.797 426.192 820.339 444.818 818.576 460.473C817.768 467.67 812.509 474.071 802.498 480.032C797.876 482.788 789.984 484.178 779.024 484.178C740.777 484.178 673.3 467.298 623.392 450.564C569.106 432.367 502.222 403.374 491.849 368.607C488.544 357.534 491.256 346.348 499.917 335.359C511.018 321.275 522.933 308.886 534.458 296.903C557.135 273.328 578.552 251.063 592.732 218.014C612.952 170.874 615.409 121.718 600.026 71.9067C596.297 59.8338 592.546 48.7156 589.235 38.9024C584.337 24.3945 580.083 11.7397 577.179 -0.00561523H574.586C577.529 11.977 581.874 24.8917 586.874 39.699C590.179 49.4952 593.93 60.5965 597.647 72.6412C612.85 121.871 610.426 170.451 590.444 217.031C576.45 249.662 555.18 271.769 532.667 295.175C521.102 307.197 509.142 319.631 497.962 333.811C488.77 345.472 485.912 357.421 489.46 369.313C500.137 405.102 567.756 434.531 622.601 452.914C672.701 469.71 740.5 486.658 779.024 486.658C790.436 486.658 798.763 485.144 803.775 482.161C814.497 475.772 820.147 468.766 821.051 460.739C822.949 443.852 802.995 424.836 779.894 402.809C754.675 378.77 726.088 351.528 714.722 318.479C686.452 236.313 697.412 151.497 710.117 86.7875C713.936 67.3476 718.659 48.2693 723.23 29.818L723.224 29.8406Z" fill="white"/>
<path d="M-0.238312 509.883C9.69914 514.974 37.6133 524.075 57.878 524.069C65.1093 524.069 70.6232 522.872 74.2672 520.504C82.1652 515.375 85.6452 510.573 84.9165 505.816C83.3007 495.319 60.4768 488.975 42.1329 483.879C34.5795 481.777 28.06 479.969 24.3596 478.252C-19.3731 457.959 -62.1341 434.502 -103.477 411.82L-108.053 409.311C-125.99 399.475 -143.634 389.815 -161 380.617V383.437C-144.018 392.447 -126.764 401.893 -109.234 411.509L-104.675 414.006C-63.2923 436.706 -20.4974 460.179 23.3144 480.512C27.2013 482.32 33.8112 484.156 41.4719 486.28C58.1944 490.924 81.0918 497.291 82.4589 506.194C83.0182 509.827 79.8037 513.945 72.9113 518.42C69.6798 520.516 64.6235 521.578 57.878 521.578C38.2856 521.578 10.3714 512.522 0.897247 507.663C-24.0227 494.89 -50.5753 474.761 -76.32 455.247C-100.867 436.638 -128.798 415.475 -161.006 396.233V399.159C-129.414 418.153 -101.94 438.954 -77.7606 457.287C-51.9989 476.817 -25.3559 497.008 -0.243958 509.883H-0.238312Z" fill="white"/>
<path d="M-75.0037 1457.56C-69.0491 1328.42 19.9473 1226.64 91.4642 1144.86L97.1024 1138.41C182.144 1041.07 178.692 1007.07 138.79 967.701C95.0403 924.539 26.0826 859.666 -67.2469 794.957C-99.0988 772.873 -130.606 752.687 -161 734.716V737.603C-131.058 755.354 -100.037 775.251 -68.6706 797.002C24.5008 861.604 93.3511 926.37 137.033 969.47C175.783 1007.71 178.941 1040.93 95.2155 1136.77L89.5829 1143.21C17.8174 1225.28 -71.501 1327.43 -77.4951 1457.43C-83.122 1579.47 -129.081 1615.3 -161.006 1625.35V1627.96C-128.346 1618.01 -80.7492 1582 -75.0093 1457.55L-75.0037 1457.56Z" fill="white"/>
<path d="M474.918 43.0939C509.063 149.434 522.938 207.206 438.196 256.187C424.287 264.226 408.502 270.164 391.266 273.83C376.662 276.943 360.595 278.525 343.522 278.525C186.003 278.508 -30.3669 146.892 -146.611 76.183L-150.577 73.7706C-154.136 71.6069 -157.593 69.5053 -161 67.4376V70.3527C-158.011 72.1662 -154.978 74.0136 -151.87 75.9005L-147.904 78.3128C-31.4572 149.152 185.302 281 343.522 281.022C360.77 281.022 377.012 279.429 391.786 276.277C409.276 272.559 425.31 266.526 439.439 258.351C525.842 208.409 511.837 149.937 477.285 42.3369C472.912 28.7103 468.364 14.5244 464.195 0.00524902H461.602C465.833 14.7843 470.46 29.2357 474.912 43.0996L474.918 43.0939Z" fill="white"/>
<path d="M276.051 27.9198C277.051 31.6654 278.441 36.2697 280.028 41.4616C284.525 56.1898 283.723 66.1273 277.644 70.9971C274.599 73.4377 270.147 74.6749 264.419 74.6749C240.103 74.6749 199.625 52.9809 186.326 45.8513C179.823 42.3655 174.925 39.7498 171.089 37.8403L150.649 27.7503C131.916 18.5755 113.64 9.30471 95.9341 0H92.7422C111.244 9.75667 130.362 19.4794 149.994 29.0892L170.423 39.1736C174.242 41.0774 179.129 43.6875 185.62 47.1676C199.003 54.3368 239.731 76.1664 264.419 76.1664C270.503 76.1664 275.266 74.8218 278.582 72.1666C285.186 66.8787 286.152 56.3989 281.463 41.0266C279.882 35.846 278.492 31.2586 277.492 27.4961C275.096 18.4908 272.673 9.3612 270.419 0H268.882C271.17 9.50244 273.622 18.7789 276.057 27.9198H276.051Z" fill="white"/>
<path d="M427.954 58.1724C441.778 101.227 454.998 155.225 434.332 190.89C424.095 208.556 406.152 220.234 381.006 225.584C369.753 227.979 357.149 229.194 343.528 229.194C199.816 229.177 -8.86487 102.227 -120.985 34.0321L-141.667 21.4677C-148.001 17.6373 -154.452 14.0555 -161 10.6828V12.3776C-154.718 15.6317 -148.526 19.0723 -142.441 22.7557L-121.759 35.3146C-9.52022 103.589 199.398 230.674 343.528 230.697C357.25 230.697 369.962 229.471 381.317 227.053C406.898 221.606 425.169 209.697 435.626 191.647C456.591 155.474 443.298 101.075 429.377 57.7204C423.412 39.1393 417.497 19.8293 412.435 0.00524902H410.887C415.982 19.9931 421.943 39.45 427.959 58.178L427.954 58.1724Z" fill="white"/>
<path d="M309.755 18.9484C310.659 22.3437 311.925 26.4905 313.388 31.2925C320.619 55.0034 331.551 90.8381 321.218 107.357C316.998 114.103 310.473 118.504 301.818 120.441C298.327 121.221 294.423 121.617 290.214 121.617C253.82 121.617 199.184 92.3183 169.829 76.5788C164.129 73.5225 159.214 70.8841 155.519 69.0424L152.971 67.7713C150.078 66.3307 147.384 64.9917 144.898 63.7714L135.282 59.0541C95.6172 39.6368 57.9408 19.7506 23.2416 0H20.2305C55.585 20.1969 94.0693 40.5407 134.627 60.3987L144.242 65.116C146.723 66.3363 149.417 67.6752 152.304 69.1159L154.852 70.387C158.524 72.2174 163.434 74.8501 169.123 77.9008C198.59 93.7024 253.441 123.114 290.214 123.114C294.536 123.114 298.547 122.707 302.146 121.905C311.202 119.877 318.043 115.255 322.484 108.154C333.184 91.0528 322.133 54.8283 314.823 30.8575C313.36 26.0724 312.1 21.9313 311.202 18.5586C309.569 12.4402 307.931 6.25398 306.349 0H304.807C306.422 6.38392 308.095 12.7001 309.761 18.9484H309.755Z" fill="white"/>
<path d="M343.454 9.97138C350.533 36.5466 357.849 64.0313 358.623 92.3974C359.623 129.068 345.341 150.062 316.172 154.802C311.834 155.502 307.099 155.864 302.099 155.864C251.44 155.864 178.918 119.696 139.959 100.267C136.157 98.3746 132.66 96.6289 129.513 95.0809L119.909 90.3636C59.307 60.6868 3.13975 29.8915 -45.0956 3.42554e-05H-47.9316C0.795212 30.3152 57.7477 61.5851 119.254 91.7026L128.852 96.4142C131.999 97.9565 135.496 99.7022 139.292 101.595C178.364 121.08 251.085 157.35 302.099 157.35C307.184 157.35 311.997 156.982 316.41 156.265C346.437 151.389 361.142 129.882 360.114 92.3522C359.334 63.8167 351.996 36.2415 344.894 9.58157C344.047 6.40091 343.199 3.20329 342.358 -0.00561523H340.815C341.691 3.33323 342.572 6.66078 343.454 9.96573V9.97138Z" fill="white"/>
<path d="M394.752 68.8391C395.487 71.1215 396.238 73.4095 396.99 75.6975C404.955 99.9339 413.187 124.989 399.893 149.18C388.798 169.36 366.318 185.727 342.613 190.874C340.19 191.399 337.743 191.806 335.348 192.088C329.427 192.778 323.196 193.128 316.84 193.128C249.945 193.128 171.468 154.564 114.17 126.402L104.578 121.696C30.9478 85.635 -40.1341 42.3938 -102.855 4.2428C-105.516 2.62705 -107.809 1.23162 -109.838 3.42554e-05H-112.719C-108.001 2.86433 -103.634 5.51959 -103.634 5.51959C-40.8855 43.6875 30.2303 86.9513 103.917 123.035L113.504 127.741C170.936 155.96 249.594 194.614 316.835 194.614C323.252 194.614 329.535 194.263 335.517 193.563C337.964 193.28 340.455 192.862 342.93 192.326C367.036 187.094 389.911 170.439 401.198 149.892C414.808 125.136 406.469 99.7644 398.408 75.2286C397.656 72.9406 396.905 70.6582 396.176 68.3758C389.159 46.5405 382.256 23.6657 376.544 -0.00561523H375.007C380.747 23.8296 387.696 46.8569 394.752 68.8334V68.8391Z" fill="white"/>
<path d="M363.43 1004.03C351.561 986.932 341.245 984.734 330.324 982.401C322.776 980.791 314.975 979.124 306.082 972.401L305.342 971.577C279.914 943.143 194.714 850.378 165.856 850.378C162.455 850.378 159.806 851.582 157.987 853.954C154.134 858.988 154.326 869.106 158.585 884.897C161.116 894.286 185.245 907.235 210.787 920.952C232.068 932.375 254.084 944.194 261.536 953.046C268.225 960.995 277.033 972.006 276.236 975.819C276.021 976.853 274.903 977.458 272.937 978.43C268.485 980.644 261.756 983.989 265.344 999.711C267.824 1010.58 274.547 1021.38 281.055 1031.82C287.117 1041.55 292.84 1050.74 295.167 1059.67C301.557 1084.17 261.406 1129.16 234.837 1158.93C226.069 1168.75 218.504 1177.24 213.685 1183.62C194.33 1209.31 170.212 1233.07 146.88 1256.07C101.509 1300.78 54.5896 1347.02 38.0874 1410.88C13.433 1506.29 8.518 1590.54 23.4778 1661.29C31.4549 1699.04 58.951 1751.69 85.6109 1751.69C102.215 1751.69 114.31 1731.74 121.553 1692.38C149.45 1540.82 225.554 1490.39 299.156 1441.63C364.362 1398.41 425.959 1357.61 452.455 1251.62C462.443 1211.63 447.071 1150.14 427.106 1116.11C418.196 1100.92 406.971 1092.38 396.112 1084.12C386.576 1076.87 377.565 1070.01 370.605 1059.08C365.673 1051.34 366.549 1042.31 367.481 1032.76C368.441 1022.89 369.43 1012.68 363.43 1004.03ZM367.667 1060.96C374.961 1072.41 384.215 1079.45 394.005 1086.9C404.592 1094.96 415.541 1103.28 424.1 1117.88C443.721 1151.32 458.844 1211.65 449.076 1250.78C422.908 1355.45 361.865 1395.9 297.235 1438.72C223.029 1487.89 146.292 1538.74 118.129 1691.76C111.333 1728.69 100.091 1748.21 85.6166 1748.21C62.9734 1748.21 35.4604 1701.1 26.8958 1660.58C12.0489 1590.36 16.9527 1506.65 41.4715 1411.77C57.7307 1348.85 104.299 1302.95 149.332 1258.57C172.749 1235.48 196.962 1211.62 216.47 1185.74C221.204 1179.46 228.724 1171.03 237.435 1161.26C266.118 1129.12 305.399 1085.1 298.54 1058.8C296.071 1049.36 290.213 1039.95 284.01 1029.99C277.654 1019.78 271.089 1009.24 268.739 998.943C265.762 985.898 270.394 983.593 274.485 981.559C276.744 980.435 279.078 979.277 279.648 976.531C280.405 972.876 278.089 967.3 264.197 950.798C256.31 941.431 234 929.454 212.431 917.873C189.771 905.709 164.088 891.925 161.947 883.987C157.088 865.971 158.619 858.864 160.755 856.073C161.896 854.587 163.563 853.864 165.856 853.864C187.635 853.864 250.847 915.873 302.743 973.904C303.387 974.622 303.755 974.989 303.772 975C313.489 982.378 322.048 984.203 329.595 985.813C340.267 988.09 349.487 990.056 360.566 1006.02C365.843 1013.61 364.95 1022.75 364.012 1032.42C363.069 1042.14 362.091 1052.19 367.667 1060.95V1060.96Z" fill="white"/>
<path d="M-161 680.611C7.00455 775.686 188.071 926.946 221.035 1002.13C240.831 1047.29 192.845 1101.24 132.09 1169.55C63.0475 1247.16 -22.8756 1343.77 -28.22 1459.71C-34.7339 1601.04 -104.782 1659.09 -161 1676.64V1680.29C-103.494 1662.77 -31.3781 1603.97 -24.7399 1459.87C-19.452 1345.16 66.0135 1249.07 134.689 1171.86C196.274 1102.62 244.922 1047.93 224.227 1000.73C191.014 924.98 8.21918 772.404 -161 676.882V680.611Z" fill="white"/>
<path d="M685.315 0.282475C685.406 0.186433 685.49 0.0960413 685.575 0H683.536C680.406 3.3219 677.253 6.84153 675.084 11.9317C668.887 26.4679 670.649 41.6254 672.35 56.2802C673.299 64.4494 674.276 72.8897 673.881 81.1549C673.259 94.1375 670.615 107.617 668.056 120.651C665.943 131.413 663.762 142.537 662.712 153.378C656.328 219.268 662.096 278.859 679.863 330.495C683.547 341.207 697.987 357.686 713.275 375.137C732.822 397.453 753.03 420.525 753.838 434.531C754.019 437.655 753.216 440.118 751.386 442.056C746.104 447.654 731.94 448.682 709.297 445.095C692.835 442.485 677.01 435.61 661.712 428.96C652.78 425.079 643.537 421.062 634.317 417.966C631.713 417.091 629.012 416.198 626.233 415.283C593.104 404.345 547.739 389.374 541.236 363.149C538.135 350.641 544.214 336.348 559.303 320.659C583.088 295.937 607.68 270.373 624.323 231.567C640.277 194.371 658.638 121.972 651.61 82.7876C650.17 74.7597 646.82 69.3418 643.577 64.0991C639.238 57.0825 635.136 50.4612 637.018 38.4504C638.402 29.6033 641.842 24.4227 644.876 19.8467C648.52 14.361 651.695 9.38945 650.814 0H649.328C650.215 8.9262 647.255 13.5531 643.628 19.0218C640.503 23.7222 636.967 29.0553 635.532 38.2245C633.572 50.7776 637.809 57.6305 642.3 64.89C645.469 70.0085 648.746 75.3077 650.136 83.0532C657.113 121.95 638.831 193.958 622.951 230.985C606.414 269.543 581.913 295.005 558.23 319.631C542.762 335.71 536.558 350.477 539.79 363.516C546.49 390.544 592.308 405.667 625.764 416.712C628.538 417.627 631.238 418.52 633.837 419.39C643.001 422.463 652.209 426.469 661.113 430.339C676.502 437.028 692.411 443.943 709.06 446.581C717.964 447.993 725.658 448.711 731.924 448.711C742.177 448.711 748.9 446.869 752.471 443.09C754.572 440.869 755.533 437.965 755.329 434.451C754.493 419.932 734.11 396.662 714.399 374.16C699.213 356.822 684.863 340.45 681.27 330.015C663.576 278.582 657.83 219.206 664.192 153.531C665.231 142.763 667.412 131.673 669.514 120.95C672.084 107.86 674.734 94.3239 675.366 81.234C675.768 72.8445 674.779 64.3364 673.824 56.1164C672.067 40.9871 670.406 26.6995 676.451 12.5249C678.677 7.30479 682.044 3.73996 685.304 0.288124L685.315 0.282475Z" fill="white"/>
<path d="M521.876 28.0158C553.406 126.198 586.004 227.725 462.873 298.892C444.467 309.53 423.829 317.332 401.531 322.077C383.549 325.908 364.03 327.845 343.511 327.845C177.06 327.845 -31.1634 204.054 -161 125.159V129.243C-30.7341 208.376 176.873 331.337 343.516 331.337C364.273 331.337 384.04 329.371 402.26 325.49C424.92 320.665 445.902 312.733 464.624 301.914C590.19 229.335 557.146 126.447 525.198 26.9481C522.294 17.8976 519.408 8.90359 516.662 0H513.012C515.86 9.25951 518.854 18.6038 521.876 28.0158Z" fill="white"/>
<path d="M178.733 4.9433C188.077 9.67193 200.879 16.1519 212.178 16.1519C216.912 16.1519 221.019 14.9881 224.392 12.6831C224.674 12.491 224.951 12.282 225.217 12.073C228.917 9.12393 231.279 4.87551 232.764 0H230.154C228.798 4.11283 226.748 7.66636 223.663 10.1239C223.443 10.299 223.217 10.4685 222.985 10.6267C220.042 12.6379 216.409 13.6605 212.183 13.6605C201.483 13.6605 188.986 7.33869 179.863 2.72305C178.49 2.02817 177.196 1.37283 176.01 0.796578C176.01 0.796578 175.354 0.474557 174.405 0.00564949H168.75L174.908 3.02813C176.094 3.61002 177.377 4.25972 178.738 4.94895L178.733 4.9433Z" fill="white"/>
<path d="M848.241 1746.6C914.346 1739.08 985.241 1662.51 986.162 1597.65C987.574 1498.21 930.39 1418.76 875.087 1341.93C865.698 1328.88 855.992 1315.4 846.823 1302.14L841.309 1294.19C815.288 1256.71 785.792 1214.22 776.21 1168.33C768.08 1129.41 755.674 1038.92 769.199 1007.63C779.097 984.729 807.299 971.622 834.575 958.944C853.416 950.188 871.206 941.917 883.708 930.59L884.29 930.064C912.798 904.239 936.765 890.996 956.191 890.337C965.01 890.038 975.982 889.659 991.461 888.202C1012.22 886.247 1024.49 883.224 1033.45 881.015C1039.15 879.614 1043.27 878.597 1046.93 878.597C1055.92 878.597 1063.42 884.953 1088.28 906.003C1161.78 968.232 1160.4 1076.46 1159.06 1181.12C1157.38 1312.82 1155.64 1449.01 1304.67 1492.12C1326.11 1498.32 1346.98 1501.46 1366.71 1501.46C1422.75 1501.46 1470.46 1476.43 1504.68 1429.07C1554.91 1359.59 1568.25 1251.15 1537.89 1159.22C1467.81 947.063 1300.28 825.746 1120.11 710.164C956.35 605.111 800.39 576.158 667.051 557.26C657.407 555.893 648.226 555.198 639.758 555.198C585.687 555.198 559.981 582.7 527.44 617.518C514.978 630.856 502.085 644.641 486.086 658.714C467.776 674.815 444.466 685.837 421.919 696.497C385.152 713.881 350.425 730.298 336.075 766.811C305.63 844.277 380.429 904.642 446.427 957.905C476.979 982.559 505.831 1005.85 522.734 1029.11C589.766 1121.4 569.715 1277 508.933 1364.42C489.962 1391.71 453.596 1425.47 415.089 1461.2C351.318 1520.4 279.032 1587.49 266.27 1643.85C260.265 1670.37 261.835 1688.88 271.067 1700.43C278.778 1710.08 291.772 1714.77 310.805 1714.77C342.12 1714.77 386.988 1701.85 434.484 1688.19C492.532 1671.49 558.32 1652.56 614.443 1652.56C641.198 1652.56 663.344 1656.72 682.152 1665.28C703.772 1675.12 722.088 1689.36 739.805 1703.13C769.024 1725.86 796.633 1747.32 835.688 1747.32C839.795 1747.32 844.021 1747.08 848.252 1746.6L848.241 1746.6ZM683.169 1663.02C664.034 1654.31 641.549 1650.07 614.431 1650.07C557.959 1650.07 491.99 1669.06 433.783 1685.8C386.457 1699.42 341.753 1712.28 310.794 1712.28C292.569 1712.28 280.207 1707.9 273.004 1698.88C264.276 1687.95 262.864 1670.14 268.688 1644.41C281.281 1588.79 353.267 1521.98 416.773 1463.03C455.376 1427.2 491.837 1393.36 510.967 1365.84C572.241 1277.72 592.393 1120.79 524.74 1027.65C507.65 1004.11 478.668 980.723 447.98 955.967C382.65 903.246 308.602 843.491 338.386 767.721C352.374 732.134 386.666 715.92 422.976 698.752C445.675 688.017 469.149 676.922 487.725 660.589C503.82 646.437 516.746 632.602 529.254 619.224C561.383 584.846 586.76 557.695 639.752 557.695C648.102 557.695 657.17 558.379 666.695 559.729C799.768 578.587 955.423 607.478 1118.76 712.259C1298.54 827.588 1465.69 948.617 1535.51 1160C1565.64 1251.2 1552.43 1358.74 1502.66 1427.61C1468.92 1474.29 1421.9 1498.97 1366.69 1498.97C1347.2 1498.97 1326.57 1495.87 1305.36 1489.73C1239.32 1470.63 1197.54 1431.39 1177.65 1369.79C1159.84 1314.63 1160.7 1246.77 1161.54 1181.15C1162.89 1075.92 1164.28 967.097 1089.88 904.105C1054.33 873.999 1053.39 873.535 1032.85 878.603C1023.96 880.795 1011.79 883.789 991.218 885.727C975.812 887.179 964.88 887.552 956.095 887.851C936.059 888.537 911.562 901.996 882.607 928.228L882.025 928.754C869.805 939.827 852.179 948.018 833.513 956.69C805.813 969.565 777.176 982.876 766.9 1006.65C753.137 1038.48 765.583 1129.67 773.764 1168.85C783.447 1215.23 813.096 1257.94 839.253 1295.62L844.767 1303.57C853.947 1316.84 863.664 1330.34 873.059 1343.39C928.125 1419.9 985.066 1499 983.665 1597.62C982.761 1661.42 913.001 1736.73 847.953 1744.14C843.818 1744.61 839.682 1744.85 835.671 1744.85C797.463 1744.85 770.188 1723.64 741.313 1701.19C723.489 1687.32 705.055 1672.99 683.169 1663.02V1663.02Z" fill="white"/>
<path d="M2013.2 979.418C2010.68 977.576 2006.77 974.17 2001.82 969.859C1982.87 953.329 1951.14 925.669 1928.78 925.669C1920.03 925.669 1913.5 929.906 1909.36 938.267C1904.16 948.753 1915.58 973.051 1923.15 989.13C1924.99 993.062 1926.59 996.457 1927.59 998.909C1929.63 1003.92 1931.5 1008.54 1933.07 1012.66C1943.65 1040.34 1954.6 1068.97 1962.72 1100.03C1963.56 1103.27 1964.38 1106.93 1965.26 1110.81C1968.97 1127.38 1973.59 1148 1985.05 1158.1C1989.51 1162.03 1993.84 1164.64 1997.93 1165.86C1999.81 1166.42 2001.68 1166.7 2003.49 1166.7C2017.04 1166.7 2026.36 1151.3 2035.37 1136.41C2037.42 1133.02 2039.55 1129.51 2041.67 1126.28L2043.68 1123.22C2078.01 1070.94 2098.74 1039.38 2035.62 995.564C2029.47 991.299 2021.51 985.497 2013.21 979.424L2013.2 979.418ZM2041.59 1121.85L2039.58 1124.91C2037.43 1128.17 2035.29 1131.7 2033.23 1135.12C2024.58 1149.42 2015.63 1164.21 2003.49 1164.21C2001.91 1164.21 2000.28 1163.95 1998.64 1163.47C1994.9 1162.35 1990.87 1159.91 1986.69 1156.23C1975.84 1146.67 1971.31 1126.49 1967.68 1110.27C1966.8 1106.35 1965.98 1102.66 1965.12 1099.4C1956.97 1068.21 1946 1039.51 1935.39 1011.76C1933.82 1007.63 1931.94 1002.99 1929.89 997.965C1928.86 995.451 1927.25 992.028 1925.39 988.062C1918.48 973.368 1906.92 948.775 1911.58 939.363C1915.31 931.821 1920.94 928.149 1928.77 928.149C1950.2 928.149 1981.49 955.425 2000.18 971.724C2005.18 976.074 2009.12 979.514 2011.73 981.418C2020.05 987.497 2028.02 993.31 2034.19 997.593C2095.31 1040.03 2075.09 1070.82 2041.59 1121.84V1121.85Z" fill="white"/>
<path d="M2054.03 923.483C2043.05 915.466 2032.08 906.5 2020.46 897.015C1984.95 868.022 1944.71 835.158 1908.54 835.158C1901.42 835.158 1894.65 836.407 1887.84 838.983C1823.95 863.129 1833.12 930.674 1844.27 968.791C1851.08 992.079 1859.88 1015.11 1868.39 1037.39C1878.32 1063.35 1888.58 1090.2 1895.72 1117.55C1900.03 1134.06 1902.19 1151.43 1904.29 1168.25C1910.72 1219.8 1916.79 1268.49 1985.54 1268.49C1990.99 1268.49 1996.86 1268.18 2002.99 1267.58C2010.81 1266.8 2017.26 1265.57 2022.71 1263.81C2041.01 1257.93 2046.48 1246.84 2054.75 1230.05C2057.26 1224.97 2060.1 1219.22 2063.61 1213.03C2069.01 1203.53 2074.88 1194.51 2081.01 1185.82V1183.23C2074.41 1192.49 2068.1 1202.11 2062.31 1212.29C2058.77 1218.52 2055.92 1224.3 2053.41 1229.39C2045.3 1245.83 2039.95 1256.69 2022.26 1262.39C2016.9 1264.11 2010.55 1265.32 2002.84 1266.08C1996.76 1266.68 1990.94 1266.99 1985.54 1266.99C1918.1 1266.99 1912.39 1221.14 1905.78 1168.06C1903.67 1151.21 1901.5 1133.77 1897.17 1117.18C1890.01 1089.74 1879.73 1062.86 1869.79 1036.86C1861.29 1014.61 1852.5 991.604 1845.7 968.379C1834.7 930.759 1825.61 864.106 1888.37 840.384C1895.01 837.876 1901.61 836.656 1908.55 836.656C1944.18 836.656 1984.2 869.338 2019.52 898.178C2031.15 907.681 2042.14 916.652 2053.16 924.697C2061.47 930.765 2068.79 936.103 2074.28 939.9C2076.5 941.442 2078.77 942.985 2081.02 944.527V942.713C2079.06 941.369 2077.07 940.019 2075.13 938.674C2069.66 934.883 2062.35 929.556 2054.05 923.488L2054.03 923.483Z" fill="white"/>
<path d="M1481.63 26.2531C1489.41 52.5459 1545.04 67.0876 1580.52 67.0876C1631.15 67.0876 1684.22 57.1106 1740.41 46.5461C1797.15 35.8799 1855.82 24.8464 1912.89 24.8464C1975.46 24.8464 2028 38.2413 2073.51 65.7939C2075.92 67.2571 2078.51 68.8277 2081.01 70.3474V67.4323C2078.95 66.1837 2076.8 64.873 2074.8 63.664C2028.88 35.8686 1975.93 22.355 1912.89 22.355C1855.59 22.355 1796.8 33.4054 1739.95 44.0942C1683.88 54.6362 1630.92 64.5906 1580.52 64.5906C1545.06 64.5906 1491.18 49.7324 1484.02 25.5356C1481.62 17.4343 1484.52 8.88659 1492.65 -0.0113525H1489.38C1481.75 8.99958 1479.13 17.7789 1481.63 26.2418V26.2531Z" fill="white"/>
<path d="M1901.88 198.964C1895.34 198.964 1888.96 198.913 1882.7 198.862C1876.67 198.811 1870.77 198.766 1864.93 198.766C1830.96 198.766 1803.92 200.585 1774.11 209.636C1758.52 214.37 1743.91 221.805 1729.79 228.997C1706.2 241.007 1683.93 252.346 1657.27 252.346C1652.85 252.346 1648.37 252.024 1643.95 251.38C1624.28 248.538 1609.56 236.945 1595.31 225.731C1579.31 213.127 1564.19 201.229 1542.98 201.229C1541.06 201.229 1539.08 201.331 1537.11 201.534C1524.03 202.873 1503.08 214.647 1482.82 226.036C1469.79 233.358 1457.48 240.279 1448.76 243.493C1436.06 248.171 1426.55 250.436 1419.61 252.086C1398.67 257.069 1396.03 258.911 1385.85 297.468C1383.03 308.129 1380.99 318.095 1379.02 327.727C1371.7 363.483 1365.91 391.73 1327.79 418.718C1302.07 436.875 1269.42 445.711 1227.99 445.711C1186.95 445.711 1144.05 437.118 1106.19 429.536C1086.4 425.571 1067.7 421.825 1053.8 420.35C1045.73 419.492 1033.3 418.972 1020.53 418.972C983.965 418.972 941.125 432.361 938.131 451.575C936.713 460.676 943.82 474.331 985.739 487.738L990.417 489.229C1150.2 540.481 1261.64 607.36 1375.06 720.073C1406.34 751.168 1430.24 765.647 1450.25 765.647C1454.95 765.647 1459.54 764.822 1463.91 763.195C1485.19 755.252 1500.7 728.406 1518.66 697.317C1527.94 681.261 1538.45 663.069 1550.87 645.562C1611.05 560.752 1697.4 498.788 1794.02 471.072C1822.53 462.897 1850.36 458.75 1876.74 458.75C1962.78 458.75 2023.51 500.878 2081.01 544.232V541.12C2023.63 497.918 1962.85 456.259 1876.74 456.259C1850.13 456.259 1822.07 460.439 1793.33 468.676C1696.17 496.545 1609.34 558.848 1548.84 644.115C1536.35 661.719 1525.81 679.967 1516.5 696.062C1498.78 726.734 1483.47 753.224 1463.04 760.851C1458.95 762.376 1454.64 763.15 1450.25 763.15C1430.93 763.15 1407.59 748.896 1376.8 718.299C1263.09 605.286 1151.36 538.233 991.174 486.851L986.491 485.353C955.096 475.314 938.792 463.45 940.588 451.948C943.08 435.988 981.186 421.452 1020.53 421.452C1033.21 421.452 1045.54 421.96 1053.54 422.814C1067.31 424.282 1085.96 428.017 1105.69 431.966C1143.66 439.57 1186.7 448.191 1227.99 448.191C1269.95 448.191 1303.06 439.208 1329.22 420.74C1368.15 393.188 1374.02 364.516 1381.45 328.219C1383.42 318.614 1385.46 308.688 1388.25 298.095C1398.39 259.685 1400.45 259.193 1420.17 254.498C1427.18 252.832 1436.77 250.544 1449.61 245.815C1458.52 242.533 1470.91 235.567 1484.04 228.194C1503.14 217.46 1524.79 205.286 1537.36 204.003C1539.24 203.811 1541.13 203.715 1542.97 203.715C1563.32 203.715 1578.11 215.359 1593.77 227.686C1608.27 239.098 1623.26 250.905 1643.58 253.843C1648.12 254.498 1652.73 254.832 1657.26 254.832C1684.52 254.832 1708.11 242.821 1730.91 231.211C1744.94 224.07 1759.44 216.681 1774.83 212.014C1804.35 203.054 1831.19 201.252 1864.93 201.252C1870.75 201.252 1876.66 201.303 1882.69 201.348C1888.95 201.399 1895.34 201.45 1901.88 201.45C1932.32 201.45 1959.55 205.003 1985.15 212.308C2017.48 221.545 2049.2 234.454 2081.01 249.493V246.736C2049.46 231.866 2017.96 219.093 1985.83 209.913C1960.01 202.54 1932.55 198.958 1901.88 198.958V198.964Z" fill="white"/>
<path d="M2055.23 967.323C2049.44 963.306 2041.63 957.622 2033.47 951.651C2021.74 943.092 2010.43 933.855 1998.39 924.025C1995.68 921.81 1992.73 919.308 1989.58 916.635C1969.51 899.608 1942.01 876.287 1916.71 876.287C1909.74 876.287 1903.26 878.106 1897.46 881.688C1853.74 908.72 1880.03 973.294 1895.74 1011.88C1897.65 1016.58 1899.46 1021.02 1900.96 1024.92C1911.21 1051.75 1921.82 1079.49 1929.45 1108.73C1930.88 1114.23 1932.32 1120.68 1933.84 1127.51C1940.81 1158.82 1950.35 1201.7 1974.32 1217.14C1978.26 1219.69 1982.43 1221.28 1986.68 1221.87C1987.95 1222.05 1989.25 1222.14 1990.55 1222.14C2019.85 1222.14 2049.06 1177.63 2070.4 1145.13C2074.26 1139.24 2077.78 1133.91 2081 1129.28V1126.68C2077.45 1131.71 2073.51 1137.65 2069.15 1144.31C2048.01 1176.52 2019.05 1220.65 1990.56 1220.65C1989.33 1220.65 1988.09 1220.56 1986.89 1220.4C1982.86 1219.84 1978.91 1218.32 1975.14 1215.89C1951.69 1200.78 1942.23 1158.25 1935.31 1127.19C1933.79 1120.34 1932.35 1113.88 1930.91 1108.36C1923.25 1079.04 1912.63 1051.26 1902.36 1024.39C1900.86 1020.47 1899.05 1016.03 1897.13 1011.32C1881.6 973.17 1855.61 909.331 1898.26 882.959C1903.81 879.524 1910.02 877.784 1916.72 877.784C1941.47 877.784 1968.72 900.896 1988.62 917.777C1991.78 920.454 1994.74 922.968 1997.52 925.234C2009.51 935.024 2020.83 944.273 2032.59 952.854C2040.77 958.826 2048.58 964.52 2054.38 968.543C2062.15 973.927 2070.02 979.249 2078.4 984.921C2079.28 985.52 2080.13 986.067 2081.01 986.655V984.864C2080.39 984.452 2079.8 984.056 2079.18 983.638C2070.86 978.011 2063 972.69 2055.23 967.311L2055.23 967.323Z" fill="white"/>
<path d="M1796.25 1320.9C1799.07 1324.6 1804.37 1329.63 1817.68 1330.72C1867.48 1334.79 1942.72 1340.95 2006.28 1398.84L2007 1399.49C2028.73 1419.34 2046.36 1444.45 2059.44 1474.13C2063.05 1482.32 2068.92 1487.02 2075.54 1487.02C2077.34 1487.02 2079.18 1486.65 2080.99 1485.91V1484.13C2079.2 1484.98 2077.36 1485.53 2075.54 1485.53C2069.54 1485.53 2064.17 1481.15 2060.81 1473.52C2047.65 1443.65 2029.88 1418.37 2008.01 1398.38L2007.28 1397.73C1943.35 1339.5 1867.8 1333.32 1817.8 1329.23C1805.08 1328.19 1800.08 1323.46 1797.43 1319.99C1791.09 1311.7 1790.28 1298.91 1791.01 1294.97C1797.93 1264.48 1806.55 1226.53 1803.31 1184.99C1797.86 1114.68 1769.75 1054.26 1742.57 995.836C1720.75 948.945 1696.02 895.8 1704.61 871.575C1719.9 828.458 1782.36 766.641 1808.51 742.066C1825.12 726.451 1844.86 718.53 1867.18 718.53C1879.95 718.53 1890.96 721.214 1897.95 723.468C1943.77 738.241 2008.66 772.093 2080.99 818.577V816.803C2008.87 770.517 1944.18 736.795 1898.41 722.044C1891.31 719.756 1880.14 717.033 1867.18 717.033C1844.47 717.033 1824.38 725.089 1807.49 740.976C1781.26 765.624 1718.59 827.65 1703.2 871.072C1694.41 895.873 1719.27 949.318 1741.22 996.468C1768.34 1054.77 1796.39 1115.06 1801.83 1185.1C1805.04 1226.41 1796.45 1264.24 1789.54 1294.7C1788.77 1298.82 1789.62 1312.23 1796.24 1320.9L1796.25 1320.9Z" fill="white"/>
<path d="M1427.29 77.2906C1470.29 104.284 1520.41 117.413 1580.52 117.413C1635.83 117.413 1693.71 106.532 1749.69 96.0074C1804.18 85.7649 1860.52 75.1777 1912.88 75.1777C1965.25 75.1777 2010.01 86.1942 2047.44 108.854C2053.97 112.815 2060.83 116.984 2067.99 121.334C2072.23 123.91 2076.57 126.554 2080.99 129.243V125.164C2077.2 122.859 2073.46 120.583 2069.8 118.357C2062.64 114.001 2055.78 109.832 2049.24 105.871C2011.26 82.8723 1966.65 71.692 1912.88 71.692C1859.12 71.692 1803.69 82.313 1749.05 92.5838C1693.22 103.081 1635.49 113.928 1580.51 113.928C1521.08 113.928 1471.57 100.979 1429.14 74.3416C1400.65 56.444 1386.9 37.6369 1388.26 18.4343C1388.69 12.3102 1390.71 6.14096 1394.17 0.00561523H1390.28C1387.11 6.04492 1385.21 12.1294 1384.78 18.1913C1383.33 38.7781 1397.63 58.6643 1427.29 77.2963V77.2906Z" fill="white"/>
<path d="M1890.05 1275.74C1901.39 1281.96 1916.96 1284.61 1932.02 1287.17C1943.16 1289.07 1954.68 1291.03 1964.08 1294.41C1970.01 1296.55 1976.55 1299.78 1983.48 1303.2C1997.77 1310.24 2013.97 1318.22 2028.73 1318.22C2031.57 1318.22 2034.31 1317.92 2036.88 1317.33C2037.56 1317.17 2038.24 1317 2038.91 1316.79C2060.02 1310.5 2071.3 1284.02 2081.01 1259.69V1255.65C2080.95 1255.8 2080.89 1255.94 2080.83 1256.08C2070.97 1280.89 2059.79 1309 2038.48 1315.36C2037.84 1315.55 2037.19 1315.72 2036.54 1315.87C2034.08 1316.43 2031.45 1316.72 2028.72 1316.72C2014.32 1316.72 1998.29 1308.82 1984.14 1301.85C1977.17 1298.41 1970.59 1295.17 1964.59 1293C1955.07 1289.57 1943.49 1287.6 1932.28 1285.69C1917.34 1283.16 1901.9 1280.52 1890.78 1274.43C1866.17 1260.94 1868.74 1236.23 1871.45 1210.08C1872.52 1199.84 1873.61 1189.25 1872.87 1179.57C1866.43 1096.68 1835.64 1030.48 1805.85 966.458C1792.33 937.391 1791.34 905.534 1803.06 876.767C1815.75 845.638 1842.35 820.481 1876.04 807.753C1886.53 803.787 1897.48 801.775 1908.56 801.775C1956.62 801.775 2001.76 838.638 2041.58 871.157C2052.86 880.365 2063.51 889.06 2073.72 896.517C2076.37 898.45 2078.75 900.184 2081.02 901.834V899.986C2079.02 898.529 2076.89 896.981 2074.61 895.314C2064.43 887.879 2053.79 879.196 2042.53 869.999C2002.51 837.322 1957.15 800.278 1908.56 800.278C1897.3 800.278 1886.18 802.323 1875.51 806.357C1841.44 819.232 1814.53 844.689 1801.68 876.202C1789.8 905.359 1790.8 937.64 1804.5 967.091C1834.23 1030.99 1864.96 1097.06 1871.38 1179.69C1872.12 1189.22 1871.03 1199.74 1869.97 1209.92C1867.32 1235.41 1864.58 1261.77 1890.06 1275.74L1890.05 1275.74Z" fill="white"/>
<path d="M1901.88 249.284C1859.98 249.284 1815.42 256.882 1768.17 264.938C1715 274.012 1660.02 283.39 1601.46 283.39C1597.23 283.39 1593.05 283.339 1589.03 283.243C1568.7 282.763 1551.46 279.407 1536.25 276.446C1523.1 273.887 1511.75 271.678 1500.84 271.678C1474.95 271.678 1455.92 285.311 1435.15 318.727C1425.13 334.84 1417.82 354.087 1410.75 372.703C1398.25 405.639 1385.32 439.694 1356.74 459.874C1346.91 466.823 1328.08 472.196 1308.14 477.885C1273.32 487.828 1233.85 499.093 1228.49 522.606C1221.8 552.091 1282.36 592.428 1314.9 614.094C1320.95 618.128 1326.18 621.613 1329.61 624.127C1367.76 652.115 1399.32 670.753 1429.3 670.753C1433.41 670.753 1437.5 670.391 1441.46 669.679C1465.38 665.386 1487.1 648.471 1509.83 616.444C1576.59 522.358 1672.59 453.552 1780.15 422.701C1813.18 413.232 1845.67 408.43 1876.74 408.43C1962.69 408.43 2026.3 443.146 2081.01 481.822V479.986C2026.31 441.429 1962.69 406.938 1876.74 406.938C1845.53 406.938 1812.89 411.757 1779.74 421.271C1671.85 452.213 1575.56 521.222 1508.62 615.58C1486.13 647.268 1464.7 663.99 1441.2 668.216C1437.32 668.911 1433.33 669.261 1429.3 669.261C1399.72 669.261 1368.41 650.737 1330.49 622.924C1327.04 620.387 1321.79 616.896 1315.72 612.851C1283.48 591.377 1223.48 551.413 1229.94 522.934C1235.1 500.279 1274.12 489.144 1308.55 479.32C1328.61 473.591 1347.56 468.185 1357.6 461.089C1386.54 440.649 1399.55 406.373 1412.14 373.228C1419.19 354.681 1426.47 335.495 1436.41 319.507C1456.87 286.593 1475.54 273.164 1500.84 273.164C1511.59 273.164 1522.88 275.362 1535.95 277.904C1551.23 280.876 1568.54 284.243 1588.98 284.723C1593.02 284.819 1597.21 284.87 1601.44 284.87C1660.14 284.87 1715.18 275.48 1768.48 266.385C1815.6 258.351 1860.1 250.764 1901.87 250.764C1927.66 250.764 1950.46 253.696 1971.59 259.73C2007.78 270.068 2044.04 285.847 2080.99 304.344V302.671C2044.19 284.282 2008.08 268.599 1971.99 258.295C1950.73 252.221 1927.8 249.272 1901.87 249.272L1901.88 249.284Z" fill="white"/>
<path d="M1857.78 1302.59C1867.97 1305.14 1877.92 1307.45 1887.56 1309.69C1939.64 1321.77 1984.63 1332.2 2029.62 1372.92L2030.52 1373.74C2040.86 1383.1 2049.02 1387.65 2055.48 1387.65C2056.48 1387.65 2057.46 1387.54 2058.4 1387.32C2068.17 1385.06 2073.04 1371.42 2078.4 1353.84C2079.23 1351.11 2080.12 1348.4 2081.01 1345.69V1340.78C2079.61 1344.97 2078.25 1349.18 2076.97 1353.4C2071.76 1370.52 2067.06 1383.78 2058.06 1385.86C2051.59 1387.38 2043.05 1383.06 2031.52 1372.62L2030.62 1371.81C1985.34 1330.82 1940.19 1320.35 1887.89 1308.23C1878.27 1306 1868.32 1303.69 1858.14 1301.13C1821.6 1291.96 1827.78 1257.61 1833.76 1224.39C1836.37 1209.87 1839.07 1194.86 1838.09 1182.29C1832.15 1105.7 1802.69 1042.39 1774.2 981.136C1770.79 973.819 1767.15 966.661 1763.62 959.746C1745.31 923.838 1729.5 892.828 1752.1 854.66C1769.11 825.944 1794.58 802.448 1819.22 779.72C1823.66 775.618 1828.08 771.545 1832.42 767.46C1841.94 758.534 1854.88 754.009 1870.9 754.009C1932.27 754.009 2026.68 819.334 2080.99 858.694V856.847C2026.41 817.323 1932.4 752.512 1870.9 752.512C1854.49 752.512 1841.2 757.173 1831.4 766.37C1827.06 770.449 1822.64 774.522 1818.2 778.624C1793.49 801.42 1767.93 824.995 1750.82 853.898C1727.79 892.777 1744.55 925.635 1762.29 960.424C1765.81 967.334 1769.45 974.475 1772.86 981.791C1801.28 1042.9 1830.68 1106.09 1836.6 1182.42C1837.56 1194.79 1834.88 1209.71 1832.29 1224.13C1826.19 1258.03 1819.89 1293.08 1857.78 1302.59V1302.59Z" fill="white"/>
<path d="M809.295 2020.09C796.697 2039.1 781.02 2062.76 786.437 2079.1C788.646 2085.76 794.205 2090.74 802.962 2093.89C804.617 2094.48 806.437 2094.79 808.369 2094.79C827.622 2094.79 858.101 2065.06 884.987 2038.83C902.094 2022.14 918.257 2006.38 927.974 2001.97C974.43 1980.9 1038.47 1970.88 1094.97 1962.03C1117.28 1958.54 1138.34 1955.25 1157.79 1951.44C1202.13 1942.75 1244.94 1938.34 1285.03 1938.34C1416.25 1938.34 1526.43 1985.56 1612.51 2078.68C1622.17 2089.12 1636.2 2094.41 1654.24 2094.41C1710.45 2094.41 1806.83 2039.7 1874.73 1938.32C1915.35 1877.68 1974.32 1753.7 1912.99 1604.75C1888.41 1545.06 1851.89 1517.26 1798.05 1517.26C1757.08 1517.26 1710.35 1532.32 1656.25 1549.76C1589.67 1571.22 1514.2 1595.54 1433.02 1595.54C1369.81 1595.54 1311.75 1580.96 1255.53 1550.98C1082.17 1458.52 1077.11 1289.87 1092.07 1153.26C1097.89 1100.13 1088.45 1058.09 1064.76 1031.66C1048.03 1012.99 1025.23 1003.13 998.83 1003.13C948.804 1003.13 886.388 1041.96 863.869 1116.18C842.672 1186.04 892.908 1249.54 951.075 1323.07C1016.67 1405.98 1091.01 1499.96 1076.58 1625.36C1069.43 1687.52 1046.73 1747.18 1015.85 1784.94C992.44 1813.58 971.746 1816.12 949.838 1818.82C933.115 1820.88 915.822 1823.01 895.523 1835.87C880.049 1845.69 875.191 1862.41 870.044 1880.12C866.496 1892.32 862.83 1904.94 855.372 1915.27C851.282 1920.94 844.186 1922.18 836.667 1923.48C826.746 1925.21 815.504 1927.16 809.544 1939.98C805.391 1948.9 810.866 1959.41 816.159 1969.57C820.572 1978.03 825.131 1986.78 823.769 1994.07C822.673 1999.9 816.476 2009.25 809.301 2020.08L809.295 2020.09ZM818.707 1968.25C813.504 1958.27 808.595 1948.85 812.143 1941.2C817.47 1929.75 827.475 1928.01 837.153 1926.32C844.904 1924.97 852.921 1923.58 857.694 1916.97C865.44 1906.23 869.174 1893.36 872.79 1880.93C877.778 1863.76 882.496 1847.54 897.049 1838.31C916.799 1825.78 933.765 1823.7 950.177 1821.68C972.673 1818.91 993.921 1816.29 1018.07 1786.77C1049.27 1748.6 1072.21 1688.38 1079.43 1625.7C1094 1499.11 1019.25 1404.64 953.318 1321.3C895.653 1248.4 845.847 1185.45 866.609 1117.02C888.716 1044.14 949.854 1006.02 998.819 1006.02C1024.38 1006.02 1046.44 1015.55 1062.61 1033.59C1085.74 1059.39 1094.94 1100.66 1089.21 1152.96C1074.15 1290.46 1079.28 1460.26 1254.16 1553.52C1310.81 1583.73 1369.31 1598.42 1433 1598.42C1514.65 1598.42 1590.34 1574.02 1657.13 1552.5C1710.99 1535.13 1757.52 1520.14 1798.05 1520.14C1851.29 1520.14 1885.92 1546.58 1910.33 1605.85C1971.15 1753.56 1912.63 1876.56 1872.34 1936.72C1807.44 2033.64 1710.48 2091.55 1654.24 2091.55C1637.04 2091.55 1623.71 2086.57 1614.62 2076.74C1527.97 1983 1417.08 1935.47 1285.03 1935.47C1244.76 1935.47 1201.76 1939.89 1157.24 1948.61C1137.85 1952.41 1116.8 1955.71 1094.53 1959.19C1037.85 1968.06 973.599 1978.12 926.788 1999.35C916.613 2003.96 901.026 2019.17 882.982 2036.77C856.485 2062.62 826.453 2091.9 808.369 2091.9C806.764 2091.9 805.267 2091.66 803.928 2091.19C795.934 2088.31 791.109 2084.06 789.166 2078.19C784.189 2063.18 799.442 2040.17 811.696 2021.68C819.046 2010.59 825.391 2001.02 826.594 1994.61C828.142 1986.35 823.351 1977.15 818.713 1968.25H818.707Z" fill="white"/>
<path d="M2013.47 1680.06C2019.87 1684.15 2030.27 1686.41 2042.74 1686.41C2053.85 1686.41 2067 1684.55 2081.01 1680.29V1676.64C2067 1681.02 2053.83 1682.92 2042.74 1682.92C2031.09 1682.92 2021.11 1680.81 2015.34 1677.12C1986.07 1658.42 1973.14 1625.43 1959.44 1590.49C1947.62 1560.33 1935.4 1529.16 1911.67 1507.18L1911.61 1506.15L1910.57 1506.18C1883.29 1482.11 1846.53 1470.41 1798.2 1470.41C1749.88 1470.41 1701.51 1481.72 1661.67 1490.81C1634.46 1497.02 1610.96 1502.39 1595.83 1502.39C1586.94 1502.39 1581.54 1500.56 1579.31 1496.79C1576.34 1491.79 1578.58 1482.41 1585.96 1468.93C1620.39 1406.07 1689.91 1256.2 1685.1 1194.18C1681.3 1145.24 1657.78 1094.7 1635.04 1045.82C1602.11 975.046 1568.06 901.862 1592.85 831.95C1621.14 752.184 1745.74 609.608 1834.41 597.513C1839.58 596.807 1845.16 596.451 1851 596.451C1908.67 596.451 1993.05 630.828 2081 680.6V676.871C1993.03 627.212 1908.71 592.965 1851 592.965C1845 592.965 1839.27 593.332 1833.94 594.061C1744.15 606.309 1618.12 750.264 1589.56 830.78C1564.3 902.037 1598.66 975.876 1631.88 1047.29C1654.5 1095.88 1677.88 1146.13 1681.63 1194.44C1685.92 1249.73 1625.26 1389.92 1582.91 1467.25C1574.67 1482.3 1572.57 1492.25 1576.31 1498.57C1579.22 1503.48 1585.61 1505.87 1595.83 1505.87C1611.35 1505.87 1635.03 1500.47 1662.45 1494.21C1702.12 1485.16 1751.49 1473.9 1798.2 1473.9C1844.92 1473.9 1882.12 1485.45 1908.78 1509.24C1932.25 1530.71 1944.42 1561.75 1956.19 1591.76C1970.1 1627.24 1983.24 1660.75 2013.46 1680.06L2013.47 1680.06Z" fill="white"/>
<path d="M765.082 6.85109e-05H761.427C753.761 26.8521 748.394 56.2633 745.213 88.5671C739.682 144.746 734.812 218.336 746.315 289.265C754.704 340.958 771.534 364.014 800.894 364.014H800.9C819.645 364.014 841.43 354.924 866.655 344.41C884.179 337.099 902.303 329.54 921.681 324.06C923.539 323.535 925.381 323.027 927.262 322.524C982.424 307.739 1044.6 305.649 1110.56 316.332C1128.27 319.196 1146.2 324.151 1163.55 328.942C1188.84 335.93 1215 343.15 1241.55 344.32C1255.95 344.958 1266.2 343.495 1273.46 339.885C1294.65 329.337 1284.34 302.971 1273.43 275.062C1266.99 258.555 1260.32 241.488 1259.22 226.172C1253.4 144.881 1298.82 70.7769 1358.86 -0.0112305H1354.27C1294.7 70.6582 1249.9 144.78 1255.75 226.42C1256.88 242.261 1263.65 259.577 1270.2 276.328C1280.95 303.858 1290.24 327.637 1271.91 336.761C1265.29 340.054 1255.27 341.421 1241.71 340.834C1215.55 339.681 1189.59 332.512 1164.49 325.58C1147.05 320.767 1129.02 315.784 1111.12 312.886C1044.67 302.129 982.006 304.242 926.364 319.157C924.471 319.665 922.613 320.174 920.737 320.705C901.162 326.241 882.942 333.84 865.321 341.19C840.447 351.568 818.962 360.528 800.911 360.528C773.602 360.528 757.828 338.382 749.772 288.706C738.326 218.172 743.185 144.876 748.693 88.9061C751.891 56.4328 757.32 26.9086 765.094 -0.00558098L765.082 6.85109e-05Z" fill="white"/>
<path d="M659.463 983.898C663.757 983.898 667.164 977.831 670.508 964.238C683.016 913.392 724.342 846.062 788.475 810.261C853.382 774.036 896.652 764.63 919.899 759.579C931.441 757.071 937.238 755.811 938.627 752.766C939.164 751.597 938.994 750.241 938.108 748.614C933.639 740.428 853.207 695.435 737.551 686.108L732.669 685.707C722.246 684.848 713.241 684.108 704.603 684.108C674.435 684.108 650.085 692.548 593.313 740.524C584.348 748.1 575.167 755.133 566.292 761.935C538.824 782.985 515.102 801.165 516.65 821.797C517.842 837.644 533.531 853.372 566.032 871.287C602.019 891.128 623.939 930.465 638.442 956.498C647.633 972.989 653.707 983.887 659.452 983.892L659.463 983.898ZM566.766 869.987C535.191 852.581 519.288 836.785 518.153 821.696C516.661 801.871 540.09 783.923 567.213 763.133C576.099 756.32 585.291 749.275 594.285 741.676C650.701 694 674.813 685.611 704.608 685.611C713.19 685.611 722.161 686.351 732.556 687.204L737.438 687.605C850.433 696.723 932.56 741.563 936.802 749.337C937.661 750.907 937.486 751.698 937.277 752.15C936.198 754.512 929.95 755.873 919.588 758.122C896.262 763.189 852.851 772.624 787.752 808.956C723.223 844.971 681.643 912.714 669.062 963.882C665.994 976.345 662.859 982.407 659.469 982.407C654.599 982.407 648.051 970.656 639.764 955.781C625.177 929.601 603.127 890.037 566.766 869.993V869.987Z" fill="white"/>
<path d="M668.882 1069.44C673.204 1069.44 676.198 1064.24 678.306 1053.09C691.243 984.503 719.287 887.331 813.012 835.503C841.971 819.481 874.676 806.787 912.997 796.685C920.708 794.652 928.956 789.092 936.939 783.72C947.266 776.76 957.95 769.568 967.808 769.568C968.949 769.568 970.073 769.664 971.158 769.856C976.683 770.839 980.813 774.025 984.802 777.116C989.299 780.596 993.547 783.878 999.4 783.878C1001.61 783.878 1003.87 783.409 1006.32 782.443C1010.51 780.788 1012.69 777.545 1014.8 774.409C1017.78 769.969 1020.57 765.8 1029.04 766.517C1037.44 767.229 1041.97 773.641 1046.77 780.426C1050.13 785.172 1053.6 790.081 1058.5 792.81C1062.1 794.81 1068.58 796.957 1074.3 796.957C1078.3 796.957 1081.13 795.9 1082.71 793.815C1084.22 791.827 1084.48 789.008 1083.49 785.42C1080.22 773.675 1055.04 762.704 1038.36 755.444C1033.44 753.303 1029.2 751.45 1026.46 750.004C1001.65 736.857 976.892 725.722 955.944 716.559C867.648 677.927 787.16 654.358 709.897 644.505C701.203 643.398 693.661 642.861 686.842 642.861C648.804 642.861 619.302 659.504 560.593 714.095C546.187 727.49 531.362 738.993 517.03 750.122C484.924 775.042 459.569 794.725 460.179 819.492C460.659 839.034 477.63 859.858 513.583 885.026C571.462 925.539 609.907 987.068 635.347 1027.78C651.018 1052.87 661.368 1069.44 668.899 1069.44H668.882ZM514.42 883.806C478.89 858.931 462.122 838.486 461.653 819.458C461.06 795.442 486.155 775.969 517.928 751.303C532.289 740.157 547.136 728.632 561.593 715.191C619.975 660.906 649.239 644.358 686.825 644.358C693.576 644.358 701.056 644.895 709.688 645.997C786.81 655.827 867.162 679.362 955.328 717.932C976.243 727.084 1000.97 738.208 1025.74 751.326C1028.53 752.8 1032.81 754.664 1037.75 756.823C1054.17 763.969 1078.96 774.771 1082.03 785.827C1082.9 788.934 1082.72 791.318 1081.51 792.917C1079.91 795.024 1076.7 795.465 1074.29 795.465C1069.09 795.465 1062.77 793.471 1059.23 791.499C1054.62 788.94 1051.25 784.172 1047.99 779.562C1043.2 772.794 1038.25 765.794 1029.16 765.026C1019.78 764.201 1016.63 768.992 1013.55 773.579C1011.48 776.664 1009.53 779.573 1005.77 781.053C1003.5 781.946 1001.42 782.381 999.394 782.381C994.05 782.381 989.999 779.251 985.711 775.929C981.576 772.732 977.305 769.427 971.418 768.381C970.249 768.172 969.034 768.065 967.808 768.065C957.486 768.065 946.617 775.392 936.103 782.477C927.866 788.025 920.081 793.273 912.618 795.239C874.179 805.369 841.361 818.114 812.289 834.192C718.016 886.326 689.836 983.926 676.842 1052.81C674.921 1062.99 672.317 1067.95 668.888 1067.95C662.188 1067.95 651.454 1050.77 636.601 1026.99C611.099 986.175 572.558 924.494 514.431 883.801L514.42 883.806Z" fill="white"/>
<path d="M852.936 1694.58C887.003 1690.71 919.109 1667.29 934.735 1634.93C949.006 1605.39 956.723 1555.27 912.47 1484.31C893.471 1453.84 872.749 1423.08 852.716 1393.32C795.424 1308.26 741.308 1227.91 718.964 1147.3C693.694 1056.13 713.987 980.915 782.837 910.602C842.451 849.717 921.25 814.798 999.026 814.798C1057.47 814.798 1109.61 835.356 1145.84 872.694C1185.66 913.72 1205.55 973.735 1203.38 1046.24C1202.88 1063.08 1202.07 1080.47 1201.23 1098.88C1198.22 1164.34 1194.8 1238.54 1205.38 1300.28C1217.54 1371.26 1246.38 1415.11 1293.53 1434.33C1318.76 1444.61 1342.7 1449.83 1364.66 1449.83C1404.57 1449.83 1438.55 1432.41 1462.89 1399.46C1504.31 1343.42 1514.24 1247.45 1487.59 1160.64C1430.42 974.413 1293.04 863.231 1089.92 744.202C935.628 653.787 805.3 625.873 687.446 609.173C678.661 607.93 670.294 607.298 662.577 607.298C613.364 607.298 589.935 632.359 560.281 664.086C548.892 676.272 537.113 688.871 522.486 701.735C505.651 716.542 490.99 725.553 478.053 733.507C457.297 746.269 439.365 757.292 419.637 786.782C380.469 845.328 432.868 881.241 488.352 919.268C517.667 939.363 547.982 960.142 564.208 984.723C666.249 1139.32 625.075 1304.24 552.519 1407.02C531.78 1436.41 501.487 1464.14 469.42 1493.52C430.202 1529.44 389.65 1566.57 366.464 1608.04C356.487 1625.88 353.651 1637.99 357.798 1645.07C360.832 1650.24 367.538 1652.76 378.294 1652.76H378.311C397.44 1652.76 427.852 1644.83 463.059 1635.64C512.436 1622.77 573.885 1606.74 628.165 1606.74C656.938 1606.74 681.593 1611.32 701.456 1620.36C721.246 1629.36 737.986 1642.39 754.183 1654.98C780.815 1675.69 805.972 1695.25 841.513 1695.25C845.247 1695.25 849.094 1695.03 852.942 1694.59L852.936 1694.58ZM702.066 1618.99C681.728 1609.73 657.56 1605.23 628.16 1605.23C573.687 1605.23 512.136 1621.28 462.675 1634.18C427.563 1643.34 397.243 1651.24 378.3 1651.24H378.289C368.108 1651.24 361.826 1648.97 359.08 1644.29C355.227 1637.72 358.063 1626.09 367.764 1608.75C390.836 1567.5 431.298 1530.44 470.426 1494.6C502.555 1465.17 532.904 1437.38 553.739 1407.87C596.274 1347.62 621.375 1278.91 626.329 1209.19C631.996 1129.48 611.516 1053.68 565.451 983.887C549.067 959.063 518.628 938.2 489.194 918.025C434.343 880.428 382.531 844.921 420.88 787.607C440.433 758.388 458.229 747.445 478.838 734.773C491.826 726.79 506.549 717.74 523.475 702.853C538.158 689.944 549.96 677.312 561.372 665.103C590.783 633.641 614.014 608.789 662.577 608.789C670.22 608.789 678.514 609.416 687.237 610.648C804.938 627.325 935.097 655.205 1089.16 745.484C1291.97 864.333 1429.13 975.311 1486.15 1161.07C1512.67 1247.44 1502.84 1342.88 1461.69 1398.57C1437.63 1431.12 1404.08 1448.33 1364.66 1448.33C1342.89 1448.33 1319.15 1443.16 1294.09 1432.94C1247.46 1413.93 1218.93 1370.45 1206.85 1300.03C1196.3 1238.44 1199.71 1164.33 1202.72 1098.95C1203.57 1080.53 1204.37 1063.14 1204.88 1046.29C1207.07 973.368 1187.02 912.98 1146.91 871.654C1110.4 834.029 1057.88 813.306 999.026 813.306C920.849 813.306 841.665 848.39 781.769 909.557C745.195 946.911 722.608 985.452 712.721 1027.39C703.891 1064.83 705.462 1104.19 717.523 1147.71C739.935 1228.54 794.114 1308.99 851.479 1394.16C871.512 1423.9 892.223 1454.65 911.205 1485.09C955.096 1555.48 947.497 1605.07 933.391 1634.27C917.979 1666.18 886.336 1689.27 852.767 1693.08C848.976 1693.52 845.185 1693.73 841.507 1693.73C806.48 1693.73 781.521 1674.33 755.098 1653.78C738.839 1641.14 722.02 1628.06 702.072 1618.98L702.066 1618.99Z" fill="white"/>
<path d="M1294.26 1160.32C1289.13 1238.24 1311.52 1291.88 1334.18 1316.09C1344.54 1327.17 1355.92 1333.27 1366.2 1333.27C1380.71 1333.27 1391.62 1321.87 1396.9 1301.16C1430.94 1167.77 1315.05 1027.16 1300.82 1015.42C1296.72 1012.03 1293.89 1011.6 1292.04 1013.61C1288.72 1017.24 1289.76 1029.13 1291.64 1050.73C1293.87 1076.28 1297.24 1114.88 1294.25 1160.32H1294.26ZM1293.89 1015.29C1294.15 1015.01 1294.41 1014.89 1294.78 1014.89C1295.46 1014.89 1296.79 1015.32 1299.25 1017.33C1313.35 1028.98 1428.22 1168.34 1394.49 1300.54C1389.51 1320.04 1379.47 1330.78 1366.21 1330.78C1356.62 1330.78 1345.89 1324.95 1336 1314.38C1313.7 1290.56 1291.68 1237.61 1296.76 1160.48C1299.76 1114.85 1296.38 1076.13 1294.15 1050.51C1292.51 1031.7 1291.32 1018.11 1293.9 1015.29H1293.89Z" fill="white"/>
<path d="M1901.88 284.158C1862.93 284.158 1819.76 291.519 1774.04 299.316C1719.44 308.632 1662.98 318.264 1601.46 318.264C1596.92 318.264 1592.46 318.207 1588.21 318.106C1584.54 318.015 1580.92 317.919 1577.36 317.823C1568.06 317.569 1559.28 317.332 1550.81 317.332C1497.81 317.332 1464.98 328.134 1443.34 385.103C1429.67 421.124 1414.17 461.953 1376.97 488.274C1366.45 495.726 1355.93 502.081 1346.64 507.691C1325.12 520.696 1308.12 530.967 1307.48 545.153C1306.9 558.192 1320.08 573.875 1350.24 596.01C1379.17 617.235 1402.97 627.551 1423 627.551C1424.81 627.551 1426.63 627.466 1428.39 627.302C1457.48 624.596 1477 600.552 1501.71 570.118C1512.94 556.283 1525.67 540.6 1540.6 525.674C1605.3 460.97 1684.81 413.769 1770.53 389.188C1806.69 378.821 1842.42 373.561 1876.74 373.561C1961.52 373.561 2026.91 404.227 2081.01 439.666V437.875C2026.9 402.543 1961.5 372.07 1876.74 372.07C1842.29 372.07 1806.41 377.346 1770.13 387.758C1684.16 412.413 1604.42 459.738 1539.54 524.628C1524.56 539.611 1511.81 555.322 1500.55 569.192C1476.07 599.36 1456.73 623.184 1428.26 625.828C1426.53 625.986 1424.77 626.071 1423 626.071C1403.31 626.071 1379.79 615.851 1351.13 594.818C1321.42 573.011 1308.42 557.723 1308.97 545.232C1309.58 531.843 1326.27 521.759 1347.41 508.979C1356.72 503.358 1367.27 496.986 1377.84 489.506C1415.41 462.913 1430.99 421.864 1444.74 385.645C1466.07 329.484 1498.47 318.84 1550.81 318.84C1559.25 318.84 1568.03 319.077 1577.32 319.332C1580.88 319.428 1584.49 319.524 1588.17 319.614C1592.43 319.721 1596.91 319.772 1601.46 319.772C1663.11 319.772 1719.63 310.129 1774.29 300.801C1819.94 293.016 1863.06 285.661 1901.89 285.661C1924.39 285.661 1944.06 288.152 1962.03 293.282C2000.65 304.315 2040.18 322.399 2081.01 343.506V341.822C2040.35 320.834 2000.96 302.852 1962.43 291.847C1944.33 286.678 1924.53 284.164 1901.88 284.164V284.158Z" fill="white"/>
<path d="M1255.7 1155.82C1249.92 1231.41 1264.85 1292.59 1297.73 1328.08C1314.93 1346.65 1336.07 1356.87 1357.24 1356.87C1387.42 1356.87 1411.56 1335.9 1418.75 1303.44C1439.74 1208.6 1407.26 1123.28 1376.33 1068.39C1339.97 1003.9 1293.47 958.278 1271.07 943.352C1262.89 937.9 1257.12 934.516 1253.61 934.516C1252.34 934.516 1251.31 934.951 1250.55 935.81C1247.68 939.07 1248.85 948.295 1251.19 966.667C1255.34 999.18 1263.04 1059.7 1255.69 1155.82H1255.7ZM1251.68 936.798C1252.15 936.262 1252.76 936.013 1253.62 936.013C1256.73 936.013 1262.52 939.448 1270.25 944.6C1320.82 978.311 1455.17 1132 1417.3 1303.12C1410.27 1334.87 1386.7 1355.38 1357.24 1355.38C1336.49 1355.38 1315.75 1345.32 1298.83 1327.07C1266.24 1291.89 1251.45 1231.11 1257.2 1155.94C1264.56 1059.66 1256.84 999.045 1252.69 966.481C1250.55 949.691 1249.26 939.555 1251.69 936.798H1251.68Z" fill="white"/>
<path d="M1227.03 1160.72C1221.29 1254.8 1239.3 1329.12 1277.74 1369.98C1297.63 1391.12 1321.75 1402.29 1347.53 1402.29C1396.84 1402.29 1438.62 1362.4 1451.48 1303.02C1470.47 1215.4 1454.14 1129.17 1402.98 1046.7C1351.14 963.148 1279.38 909.122 1241.23 884.349C1221.79 871.733 1213.47 866.485 1210.28 870.315C1207.65 873.485 1209.36 882.546 1212.78 900.597C1220.18 939.691 1235.56 1021.04 1227.04 1160.72H1227.03ZM1211.43 871.27C1211.83 870.778 1212.39 870.553 1213.19 870.553C1217.21 870.553 1225.94 876.219 1240.4 885.608C1367.54 968.136 1489.37 1121.05 1450.02 1302.69C1437.31 1361.38 1396.11 1400.81 1347.52 1400.8C1322.17 1400.8 1298.42 1389.79 1278.82 1368.97C1240.67 1328.41 1222.81 1254.48 1228.52 1160.81C1237.06 1020.95 1221.65 939.476 1214.24 900.32C1211.12 883.846 1209.24 873.903 1211.42 871.27H1211.43Z" fill="white"/>
<path d="M653.674 848.118C667.797 848.118 677.887 834.526 688.695 814.108C707.587 778.421 747.031 761.167 768.217 751.896C778.945 747.202 782.962 745.445 782.454 742.501C782.024 740.032 779.262 738.982 764.601 737.982C720.467 734.987 621.438 777.07 610.014 808.775C607.37 816.12 609.325 822.775 615.669 828.023C632.686 842.102 644.052 848.113 653.674 848.113V848.118ZM613.291 809.967C623.72 781.008 715.761 741.326 759.89 741.326C761.432 741.326 762.929 741.371 764.358 741.467C773.002 742.055 776.804 742.676 778.38 743.179C776.51 744.473 771.595 746.62 766.822 748.71C745.24 758.15 705.073 775.72 685.61 812.487C673.362 835.622 664.408 844.638 653.674 844.638C644.934 844.638 634.234 838.87 617.895 825.351C612.641 821.001 611.139 815.973 613.297 809.973L613.291 809.967Z" fill="white"/>
<path d="M697.032 846.333C730.974 784.516 792.978 762.935 843.202 751.038C848.026 749.896 848.478 747.427 848.314 746.055C847.139 735.976 800.107 716.706 729.912 716.706C721.992 716.706 713.885 716.954 705.829 717.446C673.751 719.389 598.115 764.133 570.936 797.239C563.874 805.838 560.676 812.996 561.428 818.504C563.303 832.249 575.551 838.345 589.737 845.412C604.737 852.881 621.742 861.355 630.018 881.094C634.837 892.591 641.164 898.421 648.825 898.421C661.836 898.421 678.05 880.897 697.027 846.339L697.032 846.333ZM632.323 880.128C623.685 859.53 606.245 850.841 590.85 843.175C577.303 836.424 565.597 830.599 563.902 818.159C563.258 813.43 566.354 806.741 572.868 798.81C599.742 766.071 674.384 721.841 705.987 719.926C713.998 719.44 722.048 719.191 729.918 719.191C798.915 719.191 844.908 738.281 845.845 746.337C845.998 747.614 843.896 748.309 842.631 748.608C791.904 760.625 729.263 782.449 694.852 845.13C666.254 897.212 644.78 909.822 632.323 880.123V880.128Z" fill="white"/>
<path d="M1676.64 1426.46C1680.2 1431.58 1688.88 1433.77 1705.67 1433.77C1716.17 1433.77 1728.7 1432.93 1743.2 1431.96C1761.16 1430.76 1781.51 1429.41 1802.56 1429.41C1869.18 1429.41 1914.1 1443.56 1944.06 1474.06C1971.91 1495.49 1987.27 1530.42 2000.83 1561.24C2017.3 1598.69 2031.53 1631.04 2062.94 1631.04C2066.27 1631.04 2069.79 1630.66 2073.41 1629.92C2075.82 1629.42 2078.37 1628.76 2081 1627.96V1625.35C2078.19 1626.24 2075.47 1626.95 2072.91 1627.48C2069.46 1628.19 2066.1 1628.55 2062.94 1628.55C2033.15 1628.55 2019.23 1596.89 2003.11 1560.24C1989.43 1529.15 1973.94 1493.91 1945.71 1472.21C1915.38 1441.31 1869.89 1426.92 1802.56 1426.92C1781.43 1426.92 1761.03 1428.28 1743.04 1429.48C1728.57 1430.45 1716.09 1431.28 1705.67 1431.28C1690.22 1431.28 1681.64 1429.3 1678.69 1425.04C1677.08 1422.71 1677.06 1419.56 1678.61 1415.4C1710.31 1330.66 1736.85 1223.4 1734.28 1190.37C1729.79 1132.53 1704.36 1077.88 1679.77 1025.03C1649.7 960.402 1621.29 899.359 1639.34 848.452C1664.43 777.697 1779.02 654.872 1841.09 646.403C1844.05 646.002 1847.39 645.793 1851 645.793C1899.33 645.793 1984.49 680.396 2081.01 737.609V734.722C1984.61 677.735 1899.51 643.302 1851 643.302C1847.28 643.302 1843.83 643.511 1840.75 643.935C1778.01 652.494 1662.28 776.308 1637 847.616C1618.61 899.484 1647.22 960.978 1677.52 1026.08C1702.01 1078.73 1727.35 1133.17 1731.8 1190.57C1734.05 1219.5 1710.29 1323.64 1676.28 1414.52C1674.42 1419.51 1674.54 1423.42 1676.65 1426.46L1676.64 1426.46Z" fill="white"/>
<path d="M950.131 142.542C956.814 142.542 964.549 141.542 973.785 139.492C982.977 137.452 991.649 135.526 999.519 134.464C1012.85 132.667 1025.76 131.921 1037.24 131.26C1050.32 130.509 1062.08 126.989 1073.19 120.498C1119.59 93.3804 1138.97 37.9194 1145.15 15.3271C1146.64 9.89226 1148.12 4.84726 1149.57 0H1148.02C1146.6 4.72862 1145.16 9.64368 1143.71 14.9373C1137.58 37.3488 1118.36 92.3748 1072.44 119.216C1061.54 125.583 1050 129.034 1037.07 129.78C1025.65 130.441 1012.72 131.187 999.321 132.995C991.395 134.062 982.689 135.995 973.469 138.045C964.339 140.073 956.707 141.056 950.137 141.056C939.12 141.056 931.448 138.232 926.68 132.413C919.624 123.803 918.618 108.397 923.511 83.9175L924.313 79.9177C930.962 46.2298 942.374 20.2817 960.374 0.011299H958.402C940.736 20.3212 929.443 46.1789 922.844 79.6296L922.042 83.6237C917.048 108.572 918.155 124.379 925.516 133.356C930.589 139.542 938.64 142.554 950.131 142.554V142.542Z" fill="white"/>
<path d="M1901.88 318.535C1865.85 318.535 1824.07 325.659 1779.82 333.207C1723.81 342.76 1665.89 352.641 1601.45 352.647C1596.74 352.647 1592.05 352.596 1587.4 352.483L1576.43 352.2C1567.38 351.958 1558.84 351.726 1550.81 351.726C1481.01 351.726 1477.55 390.092 1473.89 430.711C1471.88 452.993 1469.81 476.032 1457.54 495.607C1453.16 502.596 1441.38 511.443 1428.91 520.81C1402.37 540.752 1372.28 563.356 1386.72 584.513C1392.93 593.62 1400.41 598.236 1408.95 598.236C1413.63 598.236 1418.69 596.846 1424.02 594.095C1447.56 581.954 1472.74 545.989 1492.97 517.087C1504.45 500.686 1514.37 486.523 1519.79 483.28C1525.47 479.885 1531.82 479.427 1537.28 479.427C1539.39 479.427 1541.52 479.5 1543.66 479.58C1545.84 479.659 1548.03 479.732 1550.21 479.732C1558.41 479.732 1567.08 478.749 1574.91 471.631C1584.35 463.043 1585.53 451.92 1586.68 441.163C1587.71 431.491 1588.69 422.356 1595.11 414.667C1614.53 391.453 1682.68 375.228 1727.77 364.499C1741.04 361.341 1752.5 358.613 1761.06 356.155C1800.29 344.901 1839.21 339.195 1876.74 339.195C1960.04 339.195 2026.65 366.499 2081.01 399.17V396.244C2026.61 363.742 1959.99 336.704 1876.74 336.704C1838.98 336.704 1799.82 342.444 1760.36 353.76C1751.87 356.195 1740.43 358.918 1727.19 362.07C1679.07 373.527 1613.15 389.216 1593.2 413.062C1586.28 421.333 1585.22 431.276 1584.2 440.892C1583.05 451.66 1581.96 461.834 1573.23 469.783C1566.03 476.337 1557.91 477.241 1550.21 477.241C1548.06 477.241 1545.9 477.167 1543.74 477.088C1541.58 477.015 1539.42 476.936 1537.28 476.936C1531.47 476.936 1524.71 477.438 1518.51 481.139C1512.63 484.653 1503.05 498.336 1490.93 515.652C1471.91 542.814 1445.87 580.011 1422.87 591.874C1408.85 599.1 1397.76 596.275 1388.77 583.101C1375.67 563.904 1404.75 542.063 1430.4 522.792C1443.61 512.872 1455.01 504.302 1459.64 496.923C1472.23 476.845 1474.34 453.502 1476.37 430.926C1480.08 389.758 1483.28 354.206 1550.8 354.206C1558.8 354.206 1567.33 354.438 1576.35 354.681L1587.33 354.963C1592.01 355.076 1596.71 355.127 1601.45 355.127C1666.1 355.127 1724.12 345.223 1780.26 335.653C1824.38 328.128 1866.05 321.021 1901.88 321.021C1921.04 321.021 1937.54 323.072 1952.3 327.286C1993.03 338.919 2036.02 359.579 2080.99 383.431V380.612C2036.32 356.952 1993.57 336.484 1952.98 324.891C1937.99 320.609 1921.27 318.53 1901.87 318.53L1901.88 318.535Z" fill="white"/>
<path d="M959.74 89.9625C963.57 97.3972 971.83 101.171 984.298 101.171C987.541 101.171 991.117 100.911 994.925 100.397C1009.53 98.4311 1023.16 97.6401 1035.27 96.9396C1038.87 96.7362 1042.2 96.1882 1045.46 95.273C1049.07 94.2504 1052.46 92.7929 1055.84 90.8212C1082.79 75.0761 1114.64 28.7051 1115.69 0H1113.2C1112.1 27.5582 1080.41 73.579 1054.58 88.6687C1051.39 90.5331 1048.18 91.9059 1044.78 92.872C1041.7 93.742 1038.55 94.2561 1035.04 94.4595C1022.97 95.16 1009.3 95.9509 994.597 97.9339C977.378 100.256 966.248 97.1543 961.96 88.8269C956.152 77.5449 963.062 55.7944 979.988 32.0609C989.191 19.1574 1001.64 8.69456 1018.04 0.00564949H1012.83C998.055 8.43469 986.631 18.4625 977.965 30.6146C960.226 55.4836 953.412 77.6692 959.751 89.9681L959.74 89.9625Z" fill="white"/>
<path d="M1751.88 1361.56C1761.15 1374.88 1780.72 1376.38 1807.81 1378.45C1810.75 1378.68 1813.77 1378.91 1816.88 1379.16C1825.45 1379.87 1834.41 1380.17 1843.9 1380.5C1887.95 1382.01 1937.88 1383.71 1982.95 1424.77L1983.5 1425.26C2008.5 1447.15 2023.38 1485.71 2036.5 1519.73C2049.72 1554 2061.14 1583.6 2079.29 1583.6C2079.85 1583.6 2080.43 1583.48 2081 1583.43V1581.92C2080.43 1581.99 2079.85 1582.11 2079.29 1582.11C2062.17 1582.11 2050.92 1552.95 2037.9 1519.19C2024.71 1485.01 2009.76 1446.26 1984.49 1424.13L1983.95 1423.65C1938.48 1382.23 1888.26 1380.51 1843.95 1379C1834.47 1378.67 1825.53 1378.37 1817.01 1377.67C1813.89 1377.42 1810.86 1377.19 1807.92 1376.96C1781.24 1374.92 1761.97 1373.44 1753.1 1360.7C1744.71 1348.63 1745.9 1326.04 1756.96 1287.46C1767.2 1251.75 1770.99 1219.12 1768.55 1187.7C1763.58 1123.67 1736.83 1066.16 1710.94 1010.51C1683.91 952.442 1658.39 897.585 1671.74 859.92C1693.98 797.211 1801.3 686.509 1845.73 680.453C1846.72 680.317 1848.43 680.159 1851 680.159C1888.12 680.159 1972.1 711.056 2081 777.743V775.991C1972.2 709.474 1888.22 678.662 1851 678.662C1848.35 678.662 1846.56 678.831 1845.52 678.973C1800.75 685.074 1692.68 796.38 1670.33 859.417C1656.77 897.659 1682.42 952.781 1709.6 1011.17C1735.42 1066.66 1762.11 1124.05 1767.06 1187.81C1769.49 1219.05 1765.71 1251.51 1755.52 1287.04C1744.18 1326.62 1743.09 1348.91 1751.88 1361.56L1751.88 1361.56Z" fill="white"/>
<path d="M843.434 1812.11C917.595 1803.66 1005.94 1715.51 1029.63 1648.15C1070.75 1531.2 997.654 1437.04 926.967 1345.98C858.738 1258.08 794.289 1175.07 825.627 1074C852.931 985.938 941.113 938.42 1010.23 938.42C1047.48 938.42 1079.7 951.634 1100.95 975.627C1126.2 1004.12 1136.12 1047.41 1129.64 1100.81C1107.37 1284.31 1100.75 1485.05 1305.32 1544.21C1328.8 1551 1351.98 1554.44 1374.21 1554.44C1460.34 1554.44 1515.31 1505.09 1546.26 1463.7C1605.6 1384.35 1626.21 1265.63 1597.53 1168.3C1573.21 1085.78 1525.36 1005.74 1451.23 923.629C1341.06 801.572 1191.02 696.627 992.541 602.795L983.954 598.733C900.454 559.237 814.107 518.392 723.201 495.873C717.806 494.539 711.846 492.952 705.479 491.263C677.395 483.8 642.436 474.518 612.454 474.518C600.449 474.518 590.049 476.06 581.546 479.105C568.609 483.743 561.315 492.602 554.265 501.172C549.005 507.561 543.57 514.171 535.791 518.906C530.74 521.979 520.916 525.775 510.515 529.792C493.702 536.289 476.313 543.006 470.799 549.464C460.184 561.91 463.105 569.401 465.929 576.649C467.957 581.852 469.873 586.773 467.387 594.072L465.421 599.846C455.357 629.445 438.729 647.599 415.536 654.307C408.813 656.25 400.452 658.668 390.548 661.826C361.877 670.962 350.126 685.006 338.759 698.588C330.014 709.034 321.754 718.909 306.196 726.903C305.778 726.863 305.314 726.863 304.817 726.863C286.863 726.863 150.852 735.818 140.411 769.263C137.598 778.274 143.716 788.064 158.591 798.358C177.229 811.25 191.347 812.741 200.347 812.741C204.737 812.741 208.702 812.357 212.538 811.99C215.821 811.673 218.922 811.374 221.866 811.374C232.809 811.374 243.887 814.476 259.056 851.887C262.791 861.095 265.672 868.643 268.062 874.897C279.818 905.675 280.208 906.082 310.083 918.844C317.489 922.008 326.703 925.946 338.432 931.352C376.888 949.092 384.763 969.232 394.74 994.734C400.011 1008.21 405.988 1023.48 417.299 1040.65C429.405 1059.04 443.62 1073.83 457.37 1088.14C481.731 1113.5 504.741 1137.45 512.069 1177.46C524.757 1246.75 487.143 1312.91 444.603 1374.1C423.976 1403.77 381.588 1438.3 336.709 1474.87C260.491 1536.96 174.105 1607.34 173.8 1672.51C173.625 1709.73 183.184 1738.29 202.206 1757.4C222.934 1778.23 254.429 1788.35 298.507 1788.35C362.408 1788.35 440.953 1766.79 510.261 1747.78C564.818 1732.82 611.935 1719.9 642.058 1719.9C648.865 1719.9 654.639 1720.59 659.215 1721.95C688.259 1730.59 711.292 1749.01 733.574 1766.84C763.132 1790.49 791.052 1812.82 830.988 1812.82C835.067 1812.82 839.259 1812.58 843.451 1812.1L843.434 1812.11ZM660.187 1718.6C655.221 1717.13 649.284 1716.41 642.035 1716.41C611.443 1716.41 564.117 1729.39 509.317 1744.43C440.224 1763.38 361.917 1784.86 298.49 1784.87C255.39 1784.87 224.702 1775.08 204.663 1754.95C186.319 1736.52 177.105 1708.79 177.274 1672.54C177.574 1609 263.282 1539.18 338.901 1477.57C383.978 1440.85 426.552 1406.17 447.461 1376.1C490.426 1314.29 528.413 1247.38 515.492 1176.83C507.973 1135.79 484.612 1111.48 459.879 1085.72C446.241 1071.53 432.14 1056.85 420.208 1038.74C409.095 1021.87 403.192 1006.78 397.989 993.468C387.723 967.232 379.622 946.515 339.889 928.189C328.116 922.759 318.873 918.81 311.45 915.641C292.257 907.442 278.879 893.446 271.316 873.654C268.92 867.383 266.033 859.818 262.288 850.582C247.808 814.871 236.504 807.888 221.866 807.888C218.759 807.888 215.572 808.193 212.205 808.521C208.454 808.883 204.573 809.255 200.353 809.255C191.099 809.255 178.218 807.691 160.586 795.493C147.106 786.166 141.445 777.697 143.75 770.308C152.823 741.236 279.615 730.355 304.823 730.355C305.433 730.355 305.84 730.36 306.043 730.389L306.439 728.779L307.207 730.304C323.771 721.937 332.754 711.203 341.437 700.825C352.99 687.018 363.911 673.973 391.61 665.148C401.469 662.007 409.807 659.595 416.508 657.657C452.704 647.189 453.195 646.658 468.726 600.964L470.686 595.196C473.59 586.694 471.246 580.683 469.178 575.378C466.5 568.514 464.189 562.582 473.449 551.724C478.387 545.938 496.12 539.086 511.769 533.041C522.323 528.967 532.288 525.114 537.604 521.877C545.881 516.838 551.513 509.996 556.954 503.386C564.016 494.805 570.688 486.698 582.721 482.387C590.845 479.478 600.845 478.003 612.454 478.003C641.979 478.003 676.689 487.223 704.581 494.635C710.965 496.336 716.947 497.923 722.36 499.262C812.932 521.696 899.11 562.463 982.456 601.891L991.044 605.953C1189.1 699.582 1338.78 804.261 1448.64 925.968C1522.4 1007.68 1570.01 1087.27 1594.18 1169.29C1622.57 1265.61 1602.18 1383.09 1543.46 1461.62C1512.99 1502.37 1458.88 1550.95 1374.21 1550.95C1352.31 1550.95 1329.46 1547.56 1306.3 1540.86C1104.35 1482.46 1111.01 1283.31 1133.11 1101.23C1139.71 1046.81 1129.5 1002.58 1103.57 973.311C1081.64 948.561 1048.49 934.928 1010.23 934.928C939.871 934.928 850.095 983.305 822.299 1072.96C790.425 1175.76 858.445 1263.38 924.216 1348.11C994.332 1438.44 1066.84 1531.84 1026.35 1646.99C1002.98 1713.41 916.007 1800.33 843.05 1808.64C838.988 1809.1 834.931 1809.33 830.982 1809.33C792.272 1809.33 764.816 1787.37 735.743 1764.12C713.202 1746.08 689.892 1727.43 660.198 1718.6L660.187 1718.6Z" fill="white"/>
<path d="M929.199 181.36C946.154 181.36 964.853 177.208 981.35 173.541C989.807 171.666 997.79 169.892 1004.18 169.027C1016.22 167.4 1027.93 166.728 1039.25 166.078C1062.81 164.722 1085.07 163.44 1102.75 153.389C1116.98 145.288 1127.37 131.95 1134.48 112.6C1147.28 77.8162 1163.05 38.7387 1185.45 -0.00554672H1183.73C1161.51 38.5805 1145.82 77.4546 1133.08 112.08C1126.08 131.085 1115.92 144.169 1102.01 152.084C1084.63 161.96 1062.54 163.231 1039.16 164.575C1027.82 165.231 1016.08 165.903 1003.98 167.536C997.536 168.406 989.519 170.185 981.034 172.067C964.605 175.711 945.995 179.846 929.205 179.846C912.415 179.846 901.071 175.84 893.529 167.598C875.213 147.52 884.388 101.668 889.32 77.0422L890.094 73.1384C895.698 44.7497 904.686 20.5868 917.381 -0.0168457H915.624C903.104 20.5586 894.201 44.6311 888.63 72.8503L887.851 76.7428C882.868 101.634 873.597 147.96 892.421 168.598C900.263 177.168 912.291 181.337 929.199 181.337V181.36Z" fill="white"/>
<path d="M1314.9 0H1311.46C1305.26 6.58731 1299.96 12.6266 1295.94 18.0953C1241.01 92.7929 1216.63 161.739 1221.44 228.883C1223.32 255.007 1220.11 272.294 1211.64 281.734C1206.25 287.751 1198.55 290.672 1188.12 290.672C1173.62 290.672 1155.76 285.147 1136.85 279.294C1119.68 273.983 1101.92 268.492 1085.16 266.662C1072.57 265.289 1059.95 264.616 1046.57 264.616C1004.35 264.616 964.238 271.339 921.77 278.452C914.635 279.644 907.472 280.847 900.268 282.023L899.726 282.113C884.828 284.537 867.936 287.282 851.491 287.282C820.407 287.282 800.51 276.972 790.663 255.758C770.104 211.455 775.85 158.118 780.923 111.069C781.607 104.725 782.284 98.448 782.895 92.2731C786.279 57.8847 792.222 27.3096 800.984 0H798.34C789.674 27.2757 783.787 57.783 780.414 92.0302C779.81 98.1994 779.132 104.465 778.448 110.803C773.341 158.18 767.551 211.878 788.409 256.815C798.702 279 819.339 289.785 851.496 289.779C868.145 289.779 885.139 287.011 900.133 284.576L900.675 284.486C907.884 283.311 915.053 282.113 922.188 280.915C964.554 273.814 1004.57 267.114 1046.58 267.114C1059.86 267.114 1072.4 267.78 1084.9 269.142C1101.42 270.95 1119.06 276.401 1136.12 281.678C1155.21 287.587 1173.25 293.163 1188.13 293.163C1199.31 293.163 1207.61 289.971 1213.5 283.395C1222.44 273.43 1225.85 255.543 1223.93 228.703C1219.17 162.18 1243.38 93.7702 1297.95 19.5698C1302.25 13.7339 1308.08 7.17485 1314.9 0L1314.9 0Z" fill="white"/>
<path d="M1298.68 377.668C1281.79 389.6 1258.66 395.396 1227.99 395.396C1191.95 395.396 1151.64 387.323 1116.07 380.199C1095.1 376.002 1075.3 372.036 1059.13 370.313C1051.21 369.471 1029.95 367.505 1003.75 367.505C955.21 367.505 892.964 374.081 872.049 405.413C862.954 419.034 862.581 436.158 870.942 456.298C874.868 465.755 885.021 470.896 894.845 475.862C902.613 479.794 910.652 483.856 915.104 489.924C920.392 497.11 923.51 507.183 926.522 516.923C930.538 529.888 934.691 543.3 944.114 551.221C955.809 561.045 968.639 565.621 984.502 565.621C995.508 565.621 1006.77 563.395 1017.65 561.243C1028.4 559.119 1039.52 556.915 1050.27 556.915C1061.01 556.915 1069.55 558.96 1077.7 563.158C1097.5 573.367 1105.84 587.106 1113.9 600.394C1124.4 617.721 1134.32 634.087 1167.03 641.742C1235.45 657.753 1254.2 674.481 1299.5 714.892C1305.34 720.101 1311.62 725.7 1318.49 731.733C1334.8 746.049 1346.84 762.382 1358.49 778.183C1368.88 792.279 1379.62 806.854 1393.44 820.165C1410.45 836.537 1426.47 843.819 1441.96 850.864C1462.61 860.253 1482.1 869.123 1499.79 899.495L1502.55 904.263C1524.81 942.747 1547.31 978.362 1561.13 978.362C1563.35 978.362 1565.28 977.492 1566.84 975.769C1571.83 970.311 1573.17 955.809 1570.96 931.431C1569.67 917.144 1559.34 904.376 1549.36 892.026C1538.59 878.71 1528.42 866.135 1529.03 852.237C1529.76 835.571 1539.84 827.373 1550.51 818.696C1558.32 812.346 1566.39 805.775 1571.12 795.595C1582.47 771.15 1585.23 749.258 1587.88 728.084C1591.59 698.616 1595.08 670.781 1621.46 639.291C1668.67 582.943 1734.88 540.379 1807.9 519.437C1832.23 512.46 1854.74 509.07 1876.73 509.07C1951.34 509.07 2004.88 549.656 2061.56 592.62C2067.97 597.484 2074.45 602.377 2080.99 607.264V602.908C2075.17 598.546 2069.39 594.185 2063.66 589.841C2006.5 546.509 1952.51 505.578 1876.73 505.578C1854.41 505.578 1831.59 509.013 1806.94 516.081C1733.25 537.216 1666.43 580.174 1618.78 637.048C1591.74 669.318 1588.19 697.65 1584.42 727.643C1581.79 748.552 1579.08 770.167 1567.95 794.12C1563.56 803.572 1555.81 809.883 1548.3 815.984C1537.51 824.769 1526.34 833.848 1525.55 852.079C1524.88 867.293 1535.95 880.981 1546.64 894.212C1556.3 906.155 1566.29 918.511 1567.48 931.742C1570.08 960.419 1567.16 970.232 1564.26 973.413C1563.35 974.407 1562.35 974.87 1561.12 974.87C1547.4 974.87 1518.09 924.166 1505.57 902.517L1502.8 897.738C1484.55 866.406 1464.56 857.316 1443.39 847.689C1428.17 840.768 1412.42 833.605 1395.85 817.651C1382.24 804.549 1371.58 790.092 1361.28 776.116C1349.53 760.167 1337.38 743.676 1320.78 729.112C1313.92 723.089 1307.65 717.496 1301.81 712.288C1256.04 671.459 1237.09 654.561 1167.81 638.341C1136.53 631.02 1126.98 615.263 1116.86 598.58C1108.55 584.88 1099.97 570.711 1079.28 560.051C1070.62 555.588 1061.13 553.418 1050.25 553.418C1039.38 553.418 1027.87 555.65 1016.96 557.808C1006.24 559.927 995.152 562.119 984.485 562.119C969.492 562.119 957.368 557.802 946.34 548.537C937.702 541.278 933.702 528.363 929.838 515.877C926.736 505.861 923.527 495.505 917.895 487.839C912.952 481.111 904.534 476.851 896.404 472.738C886.721 467.84 877.58 463.213 874.145 454.948C866.259 435.948 866.524 419.932 874.931 407.339C894.992 377.29 956.046 370.985 1003.73 370.985C1029.77 370.985 1050.88 372.934 1058.75 373.77C1074.75 375.476 1094.49 379.425 1115.37 383.606C1151.09 390.758 1191.58 398.871 1227.97 398.871C1259.4 398.871 1283.17 392.86 1300.68 380.499C1344.28 349.675 1331.78 303.18 1319.68 258.221C1306.76 210.195 1293.41 160.53 1347.11 128.119C1353.55 124.232 1362.16 122.266 1372.69 122.266C1404.8 122.266 1450.04 139.825 1493.8 156.802C1531.9 171.586 1567.89 185.552 1591.3 186.105C1594.68 186.185 1598.03 186.224 1601.41 186.224H1601.44C1651.77 186.224 1702.64 177.546 1751.83 169.151C1800.94 160.773 1851.73 152.112 1901.87 152.112C1936.94 152.112 1968.61 156.282 1998.68 164.869C2026.47 172.807 2053.91 183.281 2080.99 195.275V191.472C2054.23 179.682 2027.12 169.366 1999.63 161.519C1969.25 152.841 1937.28 148.627 1901.87 148.627C1851.44 148.627 1800.5 157.316 1751.25 165.716C1702.19 174.083 1651.47 182.738 1601.44 182.738C1598.03 182.846 1594.74 182.704 1591.38 182.62C1568.58 182.083 1532.87 168.225 1495.06 153.553C1451.01 136.463 1405.46 118.786 1372.69 118.786C1361.35 118.786 1352.4 120.865 1345.31 125.142C1289.35 158.909 1303.06 209.862 1316.31 259.136C1328.64 304.959 1340.28 348.24 1298.66 377.663L1298.68 377.668Z" fill="white"/>
<path d="M874.948 250.419C885.608 250.419 897.975 249.109 916.308 246.035C962.797 238.239 1008.94 234.606 1061.54 234.606C1074.74 234.606 1088.31 234.827 1103.02 235.284C1108.14 235.442 1112.6 235.522 1116.64 235.522C1140.99 235.522 1155.2 232.567 1165.68 225.324C1178.21 216.664 1185.64 201.489 1190.55 174.575C1201.8 112.798 1226.59 57.2802 1268.46 0H1266.62C1225 57.1559 1200.32 112.611 1189.08 174.304C1184.25 200.789 1177 215.681 1164.83 224.093C1154.62 231.149 1140.66 234.024 1116.64 234.024C1112.62 234.024 1108.18 233.951 1103.07 233.793C1088.35 233.335 1074.76 233.115 1061.54 233.115C1008.87 233.115 962.639 236.753 916.065 244.561C897.817 247.617 885.524 248.928 874.953 248.928C844.915 248.928 823.374 238.866 815.877 189.749C808.708 142.796 815.069 93.0923 821.662 59.6586C825.921 38.0776 831.808 18.2817 839.215 0.00564949H837.65C830.294 18.1631 824.447 37.8459 820.199 59.3705C813.577 92.9228 807.193 142.813 814.397 189.975C820.95 232.912 838.497 250.425 874.953 250.419H874.948Z" fill="white"/>
<path d="M895.495 212.98C900.167 212.98 905.223 212.528 910.534 211.641C950.126 205.003 992.502 201.094 1036.5 200.02C1046.75 199.766 1056.61 200.02 1066.03 200.269C1072.35 200.433 1078.32 200.585 1084.14 200.585C1102.06 200.585 1120.61 199.201 1134.93 189.156C1146.81 180.823 1155.27 167.005 1160.78 146.904C1175.75 92.3522 1197.27 44.0717 1226.13 0H1224.36C1195.68 43.9813 1174.27 92.1432 1159.35 146.508C1153.93 166.259 1145.66 179.806 1134.08 187.93C1120.1 197.743 1101.81 199.094 1084.15 199.094C1078.35 199.094 1072.38 198.935 1066.08 198.777C1056.65 198.534 1046.77 198.274 1036.47 198.529C992.406 199.602 949.956 203.523 910.297 210.167C887.529 213.986 870.586 209.415 860.028 196.568C835.978 167.31 848.926 101.668 855.881 66.4041C860.745 41.7667 867.993 19.7337 877.614 0H875.925C866.423 19.6828 859.248 41.6198 854.418 66.1216C847.412 101.629 834.373 167.716 858.869 197.523C867.304 207.783 879.626 212.986 895.501 212.986L895.495 212.98Z" fill="white"/>
</g>
<defs>
<clipPath id="clip0_41_1106">
<rect width="1920" height="1024" fill="white"/>
</clipPath>
</defs>
</svg>
