<svg width="398" height="127" viewBox="0 0 398 127" fill="none" xmlns="http://www.w3.org/2000/svg">
<path d="M27.149 33.8268C20.3266 33.8268 14.4318 36.3265 9.62492 41.2672C7.27207 43.6659 5.4505 46.4098 4.2024 49.423L4.00843 49.9027H6.47092L6.55525 49.6923C7.57566 47.2767 9.14423 44.9621 11.2019 42.8158C15.4438 38.3466 20.8157 36.0825 27.1575 36.0825C33.4992 36.0825 38.7784 38.3466 43.113 42.8158C47.279 47.1084 49.4969 52.3772 49.7162 58.471H15.3089V60.6593H49.7077C49.4885 66.6604 47.2706 71.8535 43.1046 76.104C38.7193 80.6154 33.3474 82.9047 27.149 82.9047C20.9507 82.9047 15.486 80.6154 11.1851 76.0956C9.12736 74.0419 7.56723 71.761 6.54682 69.2949L6.45405 69.0844H4L4.2024 69.5642C5.5011 72.6279 7.32267 75.3717 9.62492 77.72C14.4318 82.6606 20.3266 85.1688 27.149 85.1688C33.9715 85.1688 39.8156 82.669 44.6731 77.72C49.5222 72.6447 51.9763 66.551 51.9763 59.5988C51.9763 52.6466 49.5222 46.3425 44.6647 41.2587C39.8156 36.3181 33.9124 33.8184 27.1406 33.8184L27.149 33.8268Z" fill="#A0866A"/>
<path d="M27.1406 33.0684C33.9001 33.0684 39.8313 35.4933 44.7295 40.2646L45.2002 40.7334L45.207 40.7402C50.2008 45.9666 52.7265 52.4579 52.7266 59.5986C52.7266 66.7457 50.1968 73.0248 45.2158 78.2383L45.208 78.2451C40.2135 83.3337 34.1785 85.9189 27.1494 85.9189C20.1218 85.9189 14.0331 83.327 9.08691 78.2432V78.2422C6.719 75.8263 4.84593 73.0039 3.51172 69.8564V69.8555L3.30859 69.376L2.86914 68.334H6.94336L7.14062 68.7822L7.2334 68.9922L7.23633 69L7.24023 69.0078C8.2192 71.3738 9.72013 73.5736 11.7148 75.5645L11.7285 75.5781C15.8852 79.9463 21.1525 82.1543 27.1494 82.1543C33.1416 82.1542 38.3201 79.9494 42.5664 75.5811L42.5693 75.5791C46.4221 71.6482 48.5478 66.8961 48.916 61.4092H14.5586V57.7207H48.9258C48.5596 52.1382 46.4308 47.3107 42.5752 43.3379H42.5742C38.3805 39.0141 33.2955 36.832 27.1572 36.832C21.0142 36.8321 15.8414 39.0172 11.7461 43.332L11.7432 43.335C9.73963 45.4248 8.22611 47.6644 7.24609 49.9844L7.16699 50.1816L6.97852 50.6523H2.89648L3.31348 49.6221L3.50684 49.1416L3.50977 49.1357C4.79513 46.0327 6.6697 43.2091 9.08691 40.7441C13.6165 36.0886 19.1036 33.5322 25.3916 33.1338L25.3271 33.0684H27.1406Z" fill="#A0866A" stroke="#A0866A" stroke-width="1.5"/>
<path d="M85.8784 57.3432C87.9867 55.9881 89.5469 54.0691 90.5083 51.6114C91.0901 50.1049 91.3853 48.4383 91.3853 46.6456C91.3853 44.8528 91.0901 43.2368 90.5083 41.6713C89.6312 39.4829 88.2482 37.6986 86.3929 36.3519C84.5291 35.0052 82.2269 34.3235 79.5536 34.3235H59.002V84.8238H81.5522C85.7351 84.8238 89.0662 83.4014 91.4528 80.6071C93.8309 77.8211 95.0369 74.5218 95.0369 70.8016C95.0369 67.6116 94.1682 64.6826 92.4479 62.0903C90.8709 59.7168 88.6614 58.1176 85.8869 57.3432H85.8784ZM61.262 56.7036V36.5876H79.5536C83.8207 36.5876 86.7302 38.5234 88.4337 42.4877C88.9397 43.8681 89.2011 45.2905 89.2011 46.7129C89.2011 48.1353 88.9397 49.5073 88.4421 50.7866C86.7218 54.7677 83.8123 56.7036 79.5536 56.7036H61.262ZM92.8442 70.8689C92.8442 74.0504 91.8407 76.8364 89.8589 79.1594C87.894 81.4656 85.1026 82.6355 81.5607 82.6355H61.2789V58.9592H81.5607C85.1026 58.9592 87.894 60.1376 89.8589 62.469C91.8407 64.8173 92.8442 67.6369 92.8442 70.8689Z" fill="#A0866A"/>
<path d="M79.5537 33.5735L80.0752 33.5823C82.4909 33.6607 84.6401 34.2885 86.4492 35.4797L86.832 35.7444L86.833 35.7454C88.8054 37.177 90.2758 39.0758 91.2041 41.3918L91.208 41.4006L91.2109 41.4104C91.8245 43.0612 92.1357 44.7658 92.1357 46.6458C92.1357 48.5211 91.8265 50.2807 91.208 51.8821L91.207 51.885C90.3812 53.9961 89.1306 55.7427 87.4863 57.0979C89.7876 58.0262 91.6692 59.5634 93.0723 61.675L93.0732 61.676C94.8774 64.3948 95.7871 67.4692 95.7871 70.802C95.787 74.6974 94.5193 78.1701 92.0234 81.094C89.4742 84.0788 85.921 85.5735 81.5518 85.5735H58.252V33.5735H79.5537ZM62.0293 81.886H81.5605C84.9237 81.886 87.4902 80.7832 89.2881 78.6731L89.627 78.259C91.264 76.1639 92.0946 73.6922 92.0947 70.8694C92.0947 67.8048 91.1477 65.1582 89.2861 62.9524H89.2852C87.4869 60.8187 84.9217 59.7092 81.5605 59.7092H62.0293V81.886ZM62.0117 55.9534H79.5537C81.5666 55.9533 83.2064 55.4973 84.5342 54.6135C85.8587 53.7319 86.93 52.386 87.7451 50.5071C88.207 49.3168 88.4511 48.04 88.4512 46.7131C88.4512 45.3907 88.2084 44.063 87.7363 42.7678C86.9298 40.8976 85.8634 39.5557 84.54 38.676C83.2134 37.7943 81.5713 37.3372 79.5537 37.3372H62.0117V55.9534Z" fill="#A0866A" stroke="#A0866A" stroke-width="1.5"/>
<path d="M177.049 33.5405L156.641 84.8236H159.171L177.993 37.185L196.816 84.8236H199.346L179.014 33.5405H177.049Z" fill="#A0866A"/>
<path d="M179.523 32.7905L179.711 33.2642L200.043 84.5474L200.45 85.5737H196.306L196.119 85.0991L177.993 39.2261L159.868 85.0991L159.681 85.5737H155.535L155.943 84.5464L176.352 33.2632L176.54 32.7905H179.523Z" fill="#A0866A" stroke="#A0866A" stroke-width="1.5"/>
<path d="M242.32 33.5405C235.118 33.5405 229.063 35.9225 224.299 40.6274C219.618 45.2987 217.139 51.3251 216.928 58.555H208.756V34.2644H206.496V84.8321H208.756V60.6087H216.928C217.046 63.9081 217.527 66.8034 218.362 69.2106C219.702 73.0487 221.861 76.3564 224.771 79.0414C227.68 81.7263 231.146 83.6201 235.085 84.6721C237.395 85.3455 239.832 85.6822 242.32 85.6822C244.336 85.6822 246.377 85.4633 248.409 85.0257C250.661 84.4533 252.625 83.7211 254.253 82.8626C256.176 81.9535 257.981 80.7584 259.608 79.3275C261.143 78.0229 262.61 76.348 263.96 74.3364C265.258 72.3164 266.253 70.1112 266.928 67.7545C267.603 65.2211 267.94 62.5109 267.94 59.6829C267.94 52.2173 265.528 45.9468 260.772 41.0651C256.016 36.175 249.809 33.6415 242.32 33.5489V33.5405ZM265.663 59.6829C265.663 62.7213 265.216 65.6588 264.331 68.4026C263.437 70.9192 262.189 73.1833 260.603 75.136C259.111 76.954 257.34 78.5364 255.333 79.8325C253.376 81.0445 251.242 81.9956 248.991 82.6437C244.69 83.8473 239.891 83.8557 235.692 82.6437C232.099 81.5748 228.937 79.7904 226.297 77.3412C223.666 74.9003 221.71 71.8703 220.504 68.3269C219.66 65.9449 219.188 63.0243 219.095 59.6829C219.188 52.4529 221.457 46.5612 225.842 42.1845C230.185 37.8499 235.717 35.6615 242.303 35.6615C249.168 35.712 254.843 38.0266 259.153 42.538C263.471 47.0578 265.663 52.8233 265.663 59.6829Z" fill="#A0866A"/>
<path d="M243.07 32.7905V32.8169C250.409 33.0656 256.559 35.6582 261.309 40.5415C266.215 45.5774 268.69 52.0426 268.69 59.6831C268.69 62.5704 268.346 65.3461 267.653 67.9478L267.649 67.9614C266.955 70.3869 265.93 72.6591 264.591 74.7417L264.587 74.7485L264.583 74.7544C263.204 76.8097 261.695 78.5352 260.103 79.8901C258.424 81.3655 256.561 82.6006 254.573 83.5405C252.889 84.4253 250.877 85.1721 248.594 85.7524L248.58 85.7563L248.566 85.7593C246.484 86.2078 244.39 86.4321 242.32 86.4321C239.771 86.4321 237.268 86.0871 234.891 85.396C230.838 84.3134 227.263 82.3619 224.262 79.5923C221.26 76.822 219.034 73.4086 217.653 69.4575V69.4565C216.851 67.1421 216.372 64.4168 216.211 61.3589H209.506V85.5825H205.746V33.5142H209.506V57.8052H216.207C216.564 50.7229 219.099 44.7571 223.769 40.0962L223.771 40.0933C228.688 35.2388 234.938 32.7905 242.32 32.7905H243.07ZM242.3 36.4116C235.897 36.4124 230.562 38.5333 226.372 42.7153C222.153 46.9266 219.939 52.6125 219.845 59.6733C219.931 62.751 220.345 65.4347 221.062 67.6411L221.211 68.0767L221.214 68.0854C222.381 71.5147 224.27 74.4379 226.808 76.7915C229.358 79.1576 232.415 80.8857 235.899 81.9233L236.282 82.0298C239.996 83.0252 244.17 83.0527 248.001 82.1265L248.789 81.9214C250.972 81.2924 253.041 80.3698 254.938 79.1948C256.875 77.9421 258.583 76.414 260.023 74.6597C261.55 72.7791 262.757 70.5928 263.624 68.1519C264.48 65.4927 264.913 62.6404 264.913 59.6831C264.913 52.9964 262.782 47.4225 258.61 43.0562C254.457 38.7076 248.983 36.4612 242.3 36.4116Z" fill="#A0866A" stroke="#A0866A" stroke-width="1.5"/>
<path d="M306.691 34.2561H304.431V82.7028H277.639V34.2561H275.379V84.8238H308.285V96.3631H310.554V82.7028H306.691V34.2561Z" fill="#A0866A"/>
<path d="M278.389 33.5061V81.9524H303.682V33.5061H307.441V81.9524H311.304V97.1135H307.535V85.5735H274.629V33.5061H278.389Z" fill="#A0866A" stroke="#A0866A" stroke-width="1.5"/>
<path d="M319.754 80.2367V34.2561H317.494V84.8238H319.307L351.404 38.5571V84.8238H353.597V34.2561H351.64L319.754 80.2367Z" fill="#A0866A"/>
<path d="M320.504 33.5061V77.8381L351.023 33.8284L351.247 33.5061H354.347V85.5735H350.654V40.9534L319.924 85.2512L319.7 85.5735H316.744V33.5061H320.504Z" fill="#A0866A" stroke="#A0866A" stroke-width="1.5"/>
<path d="M376.307 34.256C371.467 34.256 367.646 35.771 364.956 38.7505C362.266 41.7216 360.9 45.2651 360.9 49.2798C360.9 53.2946 362.266 56.8886 364.956 59.8092C367.655 62.7466 371.475 64.2364 376.307 64.2364H382.902L360.057 84.8237H363.371L386.385 64.0007L386.495 63.8997V62.1153H376.299C372.141 62.1153 368.861 60.836 366.559 58.311C364.248 55.7775 363.076 52.7391 363.076 49.2798C363.076 45.8206 364.248 42.799 366.55 40.2824C368.852 37.7826 372.124 36.5117 376.29 36.5117H391.791V84.8153H393.983V34.2476H376.29L376.307 34.256Z" fill="#A0866A"/>
<path d="M394.733 33.4976V85.5649H391.041V37.2612H376.29C372.285 37.2613 369.232 38.4766 367.103 40.7876L367.104 40.7886C364.929 43.1657 363.826 46.0062 363.826 49.2798C363.826 52.5536 364.929 55.4113 367.112 57.8052H367.113C369.243 60.1409 372.302 61.3657 376.299 61.3657H387.244V64.228L387.003 64.4517L386.894 64.5522L386.889 64.5571H386.888L363.874 85.3794L363.66 85.5737H358.104L359.555 84.2661L380.949 64.9868H376.308C371.47 64.9868 367.528 63.5359 364.677 60.605L364.404 60.3169C361.583 57.2535 360.15 53.4766 360.15 49.2798C360.15 45.0794 361.585 41.3565 364.399 38.2476C367.257 35.0831 371.291 33.5116 376.287 33.5073L376.29 33.4976H394.733Z" fill="#A0866A" stroke="#A0866A" stroke-width="1.5"/>
<path d="M127.335 44.9033C120.226 44.9033 114.12 47.4788 109.17 52.5625C104.084 57.7809 101.504 63.9504 101.504 70.9026C101.504 76.121 102.963 80.9185 105.839 85.1689L105.94 85.3204H108.655L108.25 84.7734C105.274 80.7165 103.764 76.0452 103.764 70.9026C103.764 64.5227 106.083 58.8919 110.654 54.187C115.326 49.5241 120.934 47.1674 127.326 47.1674C133.719 47.1674 139.495 49.5325 144.066 54.187C148.645 58.8498 150.964 64.4722 150.964 70.9026C150.964 76.0789 149.455 80.7417 146.495 84.7734L146.09 85.3204H148.856L148.957 85.1689C151.791 80.9438 153.224 76.1462 153.224 70.9026C153.224 63.9083 150.669 57.7388 145.626 52.5625C140.676 47.4788 134.52 44.9033 127.318 44.9033H127.335Z" fill="#A0866A"/>
<path d="M127.335 44.1533V44.1543C134.728 44.1584 141.073 46.8122 146.163 52.0391C151.338 57.3502 153.975 63.7056 153.975 70.9023C153.975 76.2892 152.499 81.2324 149.58 85.585L149.479 85.7373L149.257 86.0703H144.603L145.487 84.874L145.892 84.3271C148.753 80.4286 150.215 75.9229 150.215 70.9023C150.215 64.6722 147.975 59.2378 143.531 54.7129C139.103 50.2038 133.52 47.917 127.326 47.917C121.139 47.917 115.72 50.1905 111.184 54.7178C106.75 59.2852 104.514 64.7273 104.514 70.9023C104.514 75.8883 105.975 80.4027 108.854 84.3271L109.258 84.874L110.144 86.0703H105.539L105.316 85.7373L105.215 85.5859V85.585C102.256 81.2094 100.754 76.2664 100.754 70.9023C100.754 63.7444 103.418 57.3897 108.632 52.0391C113.719 46.8143 120.014 44.1585 127.317 44.1543V44.1533H127.335Z" fill="#4D745B" stroke="#4D745B" stroke-width="1.5"/>
<path d="M127.411 40.9054C134.048 40.9054 139.824 38.6581 144.572 34.2309L145.213 33.6333H141.831L141.739 33.7091C137.581 36.9916 132.766 38.6497 127.411 38.6497C122.056 38.6497 117.088 36.9832 112.981 33.7091L112.889 33.6333H109.465L110.106 34.2309C114.862 38.6665 120.689 40.9054 127.411 40.9054Z" fill="#A0866A"/>
<path d="M113.156 32.8833L113.363 33.0522L113.449 33.1226L113.823 33.4146C117.717 36.3847 122.379 37.8998 127.41 37.8999C132.599 37.8999 137.25 36.297 141.273 33.1206V33.1216L141.357 33.0522L141.564 32.8833H147.117L145.725 34.1821L145.084 34.7798C140.194 39.3396 134.232 41.6558 127.41 41.6558C120.508 41.6557 114.496 39.3499 109.595 34.7798L108.953 34.1821L107.561 32.8833H113.156Z" fill="#4D745B" stroke="#4D745B" stroke-width="1.5"/>
<path d="M97.6172 0.193604H99.8773V15.672H97.6172V0.193604ZM100.299 8.50933V7.38149L105.772 0.193604H108.521L102.601 7.88649L109.137 15.672H106.211L100.29 8.50933H100.299Z" fill="#A0866A"/>
<path d="M115.479 7.93697C115.479 5.78229 116.246 3.92219 117.781 2.33985C119.316 0.774339 121.179 0 123.364 0C125.548 0 127.403 0.782756 128.972 2.33985C130.506 3.91378 131.274 5.78229 131.274 7.93697C131.274 10.0917 130.506 11.9518 128.972 13.5341C127.437 15.0996 125.565 15.8739 123.364 15.8739C121.162 15.8739 119.299 15.0912 117.781 13.5341C116.246 11.9602 115.479 10.0917 115.479 7.93697ZM129.014 7.93697C129.014 6.3883 128.466 5.05845 127.378 3.93061C126.256 2.81119 124.915 2.24727 123.372 2.24727C121.829 2.24727 120.496 2.81119 119.408 3.93061C118.304 5.0332 117.747 6.37146 117.747 7.93697C117.747 9.50249 118.304 10.8323 119.408 11.9349C120.496 13.0543 121.82 13.6183 123.372 13.6183C124.924 13.6183 126.256 13.0628 127.378 11.9349C128.474 10.8155 129.014 9.47723 129.014 7.93697Z" fill="#A0866A"/>
<path d="M142.11 4.77219V15.6803H139.867V0.201904H141.689L146.799 7.71804L151.927 0.201904H153.698V15.6803H151.48V4.77219L147.423 10.7901H146.158L142.11 4.77219Z" fill="#A0866A"/>
<path d="M168.835 1.59086V0.134766H171.07V1.59086C173.136 1.67503 174.755 2.33153 175.919 3.56037C177.083 4.7808 177.673 6.22006 177.673 7.86974C177.673 9.51942 177.083 10.9839 175.91 12.2128C174.738 13.4416 173.119 14.1065 171.07 14.216V15.672H168.835V14.2328C167.772 14.1907 166.811 13.9803 165.959 13.6015C165.099 13.2312 164.407 12.743 163.868 12.1539C163.328 11.5647 162.915 10.9082 162.637 10.1759C162.358 9.44367 162.215 8.68616 162.215 7.91182C162.215 6.24531 162.797 4.79763 163.961 3.56879C165.124 2.33995 166.752 1.67503 168.835 1.59086ZM164.45 7.89499C164.45 9.13225 164.846 10.1591 165.639 10.9755C166.431 11.7919 167.511 12.238 168.885 12.3138V3.53512C167.486 3.59404 166.389 4.01488 165.622 4.80605C164.846 5.59722 164.458 6.62406 164.458 7.89499H164.45ZM171.027 3.53512V12.3138C172.427 12.2128 173.515 11.7667 174.283 11.0008C175.05 10.2264 175.438 9.208 175.438 7.93707C175.438 6.66615 175.05 5.63931 174.274 4.86497C173.498 4.08221 172.419 3.64454 171.027 3.53512Z" fill="#A0866A"/>
<path d="M185.861 7.93697C185.861 5.78229 186.629 3.92219 188.164 2.33985C189.698 0.774339 191.562 0 193.746 0C195.931 0 197.786 0.782756 199.354 2.33985C200.889 3.91378 201.657 5.78229 201.657 7.93697C201.657 10.0917 200.889 11.9518 199.354 13.5341C197.82 15.0996 195.947 15.8739 193.746 15.8739C191.545 15.8739 189.682 15.0912 188.164 13.5341C186.629 11.9602 185.861 10.0917 185.861 7.93697ZM199.397 7.93697C199.397 6.3883 198.848 5.05845 197.761 3.93061C196.639 2.81119 195.298 2.24727 193.755 2.24727C192.212 2.24727 190.879 2.81119 189.791 3.93061C188.686 5.0332 188.13 6.37146 188.13 7.93697C188.13 9.50249 188.686 10.8323 189.791 11.9349C190.879 13.0543 192.203 13.6183 193.755 13.6183C195.306 13.6183 196.639 13.0628 197.761 11.9349C198.848 10.8155 199.397 9.47723 199.397 7.93697Z" fill="#A0866A"/>
<path d="M210.276 0.193604H215.943C217.52 0.193604 218.76 0.707024 219.645 1.73386C220.531 2.76071 220.969 3.97271 220.969 5.36989C220.969 6.76707 220.522 7.97908 219.645 8.9975C218.76 10.0159 217.529 10.5293 215.943 10.5293H212.528V15.6804H210.268V0.193604H210.276ZM212.528 8.31575H215.943C216.829 8.31575 217.52 8.02958 218.018 7.45724C218.515 6.8849 218.76 6.19473 218.76 5.40356C218.76 4.61239 218.515 3.92221 218.018 3.33304C217.52 2.75229 216.829 2.4577 215.943 2.4577H212.528V8.31575Z" fill="#A0866A"/>
<path d="M235.6 15.6804H233.365V2.32304H228.668V0.193604H240.272V2.32304H235.6V15.6804Z" fill="#A0866A"/>
<path d="M250.569 0.193604V6.74182H257.13V0.193604H259.39V15.6804H257.13V8.95542H250.569V15.6804H248.334V0.193604H250.569Z" fill="#A0866A"/>
<path d="M279.082 15.6804L277.597 11.7666H271.306L269.797 15.6804H267.385L273.608 0H275.253L281.477 15.6804H279.082ZM274.452 3.56028L272.124 9.6624H276.779L274.452 3.56028Z" fill="#A0866A"/>
<path d="M297.483 7.82745V8.88795L291.833 15.6718H288.932L293.823 9.85588C292.549 9.63704 291.571 9.07312 290.863 8.18095C290.163 7.28878 289.809 6.27035 289.809 5.11726C289.809 3.78742 290.256 2.63433 291.141 1.65799C292.027 0.673229 293.266 0.185059 294.86 0.185059H300.51V15.6634H298.276V2.44916H294.86C293.975 2.44916 293.283 2.71849 292.786 3.24875C292.288 3.779 292.043 4.41026 292.043 5.12568C292.043 5.8411 292.288 6.4976 292.786 7.02786C293.283 7.55811 293.975 7.82745 294.86 7.82745H297.474H297.483Z" fill="#A0866A"/>
<path d="M45.998 111.32H48.2581V126.798H45.998V111.32ZM48.6798 119.635V118.507L54.1529 111.32H56.9021L50.982 119.021L57.5177 126.806H54.5914L48.6714 119.644L48.6798 119.635Z" fill="#A0866A"/>
<path d="M78.4985 111.32V117.868H85.0595V111.32H87.3195V126.798H85.0595V120.073H78.4985V126.798H76.2637V111.32H78.4985Z" fill="#A0866A"/>
<path d="M95.8633 119.063C95.8633 116.908 96.6307 115.048 98.1655 113.466C99.7004 111.9 101.564 111.126 103.748 111.126C105.932 111.126 107.788 111.909 109.356 113.466C110.891 115.04 111.659 116.908 111.659 119.063C111.659 121.218 110.891 123.078 109.356 124.66C107.822 126.226 105.949 127 103.748 127C101.547 127 99.6919 126.217 98.1655 124.66C96.6307 123.086 95.8633 121.218 95.8633 119.063ZM109.407 119.063C109.407 117.514 108.859 116.184 107.771 115.057C106.649 113.937 105.308 113.373 103.765 113.373C102.222 113.373 100.889 113.937 99.8016 115.057C98.6968 116.159 98.1402 117.497 98.1402 119.063C98.1402 120.628 98.6968 121.958 99.8016 123.061C100.898 124.18 102.222 124.744 103.765 124.744C105.308 124.744 106.649 124.189 107.771 123.061C108.867 121.941 109.407 120.603 109.407 119.063Z" fill="#A0866A"/>
<path d="M120.234 111.32H126.686C127.866 111.32 128.853 111.74 129.637 112.591C130.422 113.441 130.793 114.425 130.767 115.553C130.742 116.681 130.253 117.59 129.308 118.28C130.135 118.634 130.751 119.164 131.147 119.863C131.552 120.561 131.746 121.319 131.746 122.127C131.746 123.381 131.349 124.475 130.548 125.401C129.747 126.327 128.651 126.798 127.242 126.798H120.243V111.32H120.234ZM122.444 113.441V117.489H126.635C127.091 117.489 127.487 117.354 127.807 117.068C128.128 116.79 128.33 116.454 128.406 116.067C128.482 115.671 128.482 115.284 128.423 114.88C128.356 114.484 128.162 114.148 127.85 113.861C127.529 113.584 127.141 113.441 126.686 113.441H122.452H122.444ZM122.444 119.703V124.635H127.225C127.934 124.635 128.49 124.391 128.887 123.894C129.283 123.406 129.486 122.825 129.486 122.16C129.486 121.495 129.292 120.923 128.887 120.435C128.482 119.947 127.934 119.703 127.225 119.703H122.444Z" fill="#A0866A"/>
<path d="M145.871 126.798H140.195V111.32H142.455V116.471H145.871C147.448 116.471 148.688 116.976 149.573 117.994C150.458 119.012 150.905 120.224 150.905 121.622C150.905 123.019 150.467 124.231 149.573 125.258C148.688 126.285 147.456 126.798 145.871 126.798ZM145.871 118.684H142.455V124.593H145.871C146.756 124.593 147.448 124.298 147.937 123.709C148.435 123.12 148.679 122.421 148.679 121.613C148.679 120.805 148.435 120.132 147.937 119.551C147.448 118.979 146.756 118.693 145.871 118.693V118.684ZM154.371 126.798H152.086V111.32H154.371V126.798Z" fill="#A0866A"/>
<path d="M165.698 115.898V126.798H163.455V111.32H165.277L170.396 118.836L175.515 111.32H177.285V126.798H175.068V115.898L171.011 121.908H169.755L165.698 115.898Z" fill="#A0866A"/>
<path d="M197.338 111.32H203.013C204.59 111.32 205.83 111.833 206.716 112.86C207.601 113.887 208.048 115.099 208.048 116.496C208.048 117.893 207.601 119.105 206.716 120.123C205.83 121.142 204.599 121.655 203.013 121.655H199.598V126.806H197.338V111.328V111.32ZM199.598 119.433H203.013C203.899 119.433 204.59 119.147 205.088 118.575C205.586 118.002 205.83 117.312 205.83 116.521C205.83 115.73 205.586 115.031 205.088 114.451C204.59 113.87 203.899 113.575 203.013 113.575H199.598V119.433Z" fill="#A0866A"/>
<path d="M218.489 120.166V124.568H225.691V126.798H216.229V111.32H225.665V113.55H218.489V117.91H225.513V120.166H218.489Z" fill="#A0866A"/>
<path d="M233.729 119.105C233.729 116.984 234.471 115.132 235.946 113.55C237.439 112.018 239.227 111.252 241.31 111.252C243.089 111.252 244.616 111.766 245.923 112.792C247.222 113.819 248.099 115.208 248.537 116.959H246.319C245.914 115.822 245.274 114.956 244.388 114.358C243.503 113.76 242.474 113.457 241.31 113.457C239.834 113.457 238.561 114.013 237.498 115.115C236.436 116.218 235.904 117.548 235.904 119.097C235.904 120.645 236.436 121.925 237.498 123.036C238.561 124.138 239.834 124.694 241.31 124.694C242.491 124.694 243.545 124.365 244.472 123.717C245.392 123.069 246.058 122.16 246.454 120.999H248.647C248.208 122.766 247.314 124.197 245.99 125.274C244.658 126.36 243.106 126.899 241.31 126.899C239.202 126.899 237.414 126.133 235.946 124.601C234.471 123.027 233.729 121.184 233.729 119.097" fill="#A0866A"/>
<path d="M260.621 126.865H258.192L260.401 121.849L255.266 111.235H257.787L260.536 116.866L261.692 119.349L262.687 116.891L265.082 111.235H267.629L260.621 126.865Z" fill="#A0866A"/>
<path d="M275.641 111.32H281.308C282.885 111.32 284.125 111.833 285.01 112.86C285.896 113.887 286.334 115.099 286.334 116.496C286.334 117.893 285.896 119.105 285.01 120.123C284.125 121.142 282.894 121.655 281.308 121.655H277.893V126.806H275.633V111.328L275.641 111.32ZM277.901 119.433H281.317C282.202 119.433 282.894 119.147 283.391 118.575C283.88 118.002 284.133 117.312 284.133 116.521C284.133 115.73 283.889 115.031 283.391 114.451C282.894 113.87 282.202 113.575 281.317 113.575H277.901V119.433Z" fill="#A0866A"/>
<path d="M294.37 119.105C294.37 116.984 295.112 115.132 296.588 113.55C298.08 112.018 299.86 111.252 301.951 111.252C303.722 111.252 305.257 111.766 306.556 112.792C307.854 113.819 308.723 115.208 309.17 116.959H306.952C306.556 115.822 305.906 114.956 305.021 114.358C304.135 113.76 303.107 113.457 301.943 113.457C300.467 113.457 299.194 114.013 298.131 115.115C297.068 116.218 296.537 117.548 296.537 119.097C296.537 120.645 297.068 121.925 298.131 123.036C299.194 124.138 300.467 124.694 301.943 124.694C303.123 124.694 304.178 124.365 305.105 123.717C306.024 123.069 306.691 122.16 307.087 120.999H309.28C308.833 122.766 307.947 124.197 306.623 125.274C305.291 126.36 303.739 126.899 301.943 126.899C299.834 126.899 298.047 126.133 296.579 124.601C295.103 123.027 294.361 121.184 294.361 119.097" fill="#A0866A"/>
<path d="M327.841 126.798L326.357 122.884H320.066L318.556 126.798H316.145L322.368 111.118H324.013L330.236 126.798H327.841ZM323.211 114.678L320.884 120.78H325.539L323.211 114.678Z" fill="#A0866A"/>
<path d="M340.416 115.898V126.798H338.182V111.32H339.995L345.114 118.836L350.233 111.32H352.004V126.798H349.786V115.898L345.738 121.908H344.473L340.416 115.898Z" fill="#A0866A"/>
</svg>
