<svg width="52" height="52" viewBox="0 0 52 52" fill="none" xmlns="http://www.w3.org/2000/svg">
<g clip-path="url(#clip0_41_1226)">
<mask id="mask0_41_1226" style="mask-type:luminance" maskUnits="userSpaceOnUse" x="0" y="0" width="52" height="52">
<path d="M32.9888 0H32.8952H27.9396H19.0112C3.354 0 0 3.3592 0 19.0112V32.9888C0 48.646 3.3592 52 19.0112 52H27.9396H32.8952H32.9888C48.646 52 52 48.6408 52 32.9888V19.0112C52 3.354 48.6408 0 32.9888 0Z" fill="white"/>
</mask>
<g mask="url(#mask0_41_1226)">
<path d="M0 0H52V52H0V0Z" fill="#A0866A"/>
</g>
<path fill-rule="evenodd" clip-rule="evenodd" d="M26.6298 16.0263C21.4599 15.7552 17.4255 19.3426 16.5358 24.9575C15.7991 29.6073 17.1053 35.2731 18.2226 35.5583C18.6965 35.6792 19.8369 34.807 20.6665 34.0246C20.8225 33.8775 21.0584 33.8528 21.2413 33.9646C22.5347 34.7555 23.999 35.3498 25.6133 35.4345C30.9209 35.7128 35.6244 31.5589 35.9024 26.2509C36.1804 20.9429 31.9374 16.3047 26.6298 16.0263ZM17.9724 42.9824C17.7722 42.8407 17.4964 42.8792 17.3287 43.0581C15.0865 45.4496 9.34803 47.1271 9.08517 43.863C9.08517 41.3057 8.51077 39.1506 7.87835 36.7779C7.10379 33.8719 6.24219 30.6394 6.24219 25.9412C6.24219 14.7379 15.4303 6.3125 26.3243 6.3125C37.2183 6.3125 45.7596 15.1493 45.7596 26.05C45.7596 36.9507 36.9464 45.5699 26.4274 45.5699C22.6955 45.5699 20.8845 45.0442 17.9724 42.9824Z" fill="white"/>
</g>
<defs>
<clipPath id="clip0_41_1226">
<rect width="52" height="52" fill="white"/>
</clipPath>
</defs>
</svg>
