<svg width="52" height="52" viewBox="0 0 52 52" fill="none" xmlns="http://www.w3.org/2000/svg">
<rect width="52" height="52" rx="26" fill="#A0866A"/>
<path d="M35.7121 17C36.3901 17 36.9015 17.58 36.628 18.6587L33.3096 33.9117C33.0777 34.9962 32.4057 35.2572 31.4779 34.7526L23.5626 29.0516C23.5319 29.0301 23.5069 29.0018 23.4897 28.969C23.4724 28.9363 23.4634 28.9 23.4634 28.8631C23.4634 28.8263 23.4724 28.79 23.4897 28.7572C23.5069 28.7244 23.5319 28.6961 23.5626 28.6746L32.703 20.6248C33.1193 20.2652 32.6138 20.0912 32.0667 20.416L20.5951 27.4741C20.5603 27.4962 20.5208 27.5103 20.4796 27.5154C20.4384 27.5204 20.3965 27.5162 20.3572 27.5031L15.4867 26.001C14.4044 25.6936 14.4044 24.9687 15.7305 24.4525L35.2185 17.1218C35.3731 17.0495 35.5409 17.0081 35.7121 17Z" fill="white"/>
</svg>
