<svg width="42" height="52" viewBox="0 0 42 52" fill="none" xmlns="http://www.w3.org/2000/svg">
<g clip-path="url(#clip0_41_1235)">
<path fill-rule="evenodd" clip-rule="evenodd" d="M1.89641e-05 20.9079C1.89641e-05 9.36126 9.35297 0 20.8909 0C32.4273 0 41.7803 9.36126 41.7803 20.9079C41.7803 26.6812 39.4432 31.9062 35.666 35.6899C34.679 36.6777 33.3429 37.7805 31.8981 38.975C27.8075 42.3532 22.8431 46.4537 22.4567 50.7033C22.3791 51.5653 21.7553 52.2721 20.8894 52.2721C20.025 52.2721 19.4011 51.5653 19.3235 50.7033C18.9371 46.4537 13.9728 42.3532 9.88214 38.975C8.43893 37.7805 7.10279 36.6777 6.11582 35.6899C2.19353 31.7732 -0.00745331 26.4534 1.89641e-05 20.9079ZM28.2032 20.9094C28.262 24.9511 25.0362 28.2752 20.9982 28.334C16.9602 28.3929 13.639 25.1643 13.5802 21.1226C13.5792 21.0516 13.5792 20.9805 13.5802 20.9094C13.639 16.8678 16.9602 13.6392 20.9982 13.698C24.9533 13.7557 28.1456 16.9508 28.2032 20.9094Z" fill="url(#paint0_linear_41_1235)"/>
<path fill-rule="evenodd" clip-rule="evenodd" d="M1.89641e-05 20.9079C1.89641e-05 9.36126 9.35297 0 20.8909 0C32.4273 0 41.7803 9.36126 41.7803 20.9079C41.7803 26.6812 39.4432 31.9062 35.666 35.6899C34.679 36.6777 33.3429 37.7805 31.8981 38.975C27.8075 42.3532 22.8431 46.4537 22.4567 50.7033C22.3791 51.5653 21.7553 52.2721 20.8894 52.2721C20.025 52.2721 19.4011 51.5653 19.3235 50.7033C18.9371 46.4537 13.9728 42.3532 9.88214 38.975C8.43893 37.7805 7.10279 36.6777 6.11582 35.6899C2.19353 31.7732 -0.00745331 26.4534 1.89641e-05 20.9079ZM28.2032 20.9094C28.262 24.9511 25.0362 28.2752 20.9982 28.334C16.9602 28.3929 13.639 25.1643 13.5802 21.1226C13.5792 21.0516 13.5792 20.9805 13.5802 20.9094C13.639 16.8678 16.9602 13.6392 20.9982 13.698C24.9533 13.7557 28.1456 16.9508 28.2032 20.9094Z" fill="#A0866A"/>
</g>
<defs>
<linearGradient id="paint0_linear_41_1235" x1="20.8901" y1="0" x2="20.8901" y2="52.2721" gradientUnits="userSpaceOnUse">
<stop stop-color="#FF6122"/>
<stop offset="1" stop-color="#F22411"/>
</linearGradient>
<clipPath id="clip0_41_1235">
<rect width="42" height="52" fill="white"/>
</clipPath>
</defs>
</svg>
